<svg width="100" height="176" viewBox="0 0 100 176" fill="none" xmlns="http://www.w3.org/2000/svg">
    <path
        d="M34.6733 26.5352H27.8945V44.9982H30.8898V38.7471H34.6733C38.2729 38.7471 40.9529 36.1359 40.9529 32.6543C40.9529 29.1464 38.2466 26.5352 34.6733 26.5352ZM34.5419 35.8722H30.8898V29.4101H34.5419C36.5125 29.4101 37.8788 30.7816 37.8788 32.6543C37.8788 34.5006 36.5125 35.8722 34.5419 35.8722Z"
        fill="white"/>
    <path
        d="M55.5187 30.7553L55.1772 32.5488C53.8897 31.2037 52.0768 30.4124 49.9749 30.4124C45.7447 30.4124 42.5918 33.6039 42.5918 37.8767C42.5918 42.1496 45.7447 45.3674 49.9749 45.3674C52.0505 45.3674 53.8372 44.5761 55.1246 43.2837L55.4137 44.9982H57.7521V30.7553H55.5187ZM50.2113 42.5452C47.5313 42.5452 45.5608 40.5407 45.5608 37.8767C45.5608 35.2128 47.5313 33.2082 50.2113 33.2082C52.8913 33.2082 54.8356 35.1864 54.8356 37.8767C54.8356 40.567 52.8913 42.5452 50.2113 42.5452Z"
        fill="white"/>
    <path
        d="M72.0529 30.7553L67.8228 40.6989L63.3036 30.7553H60.1506L66.3251 43.9695L66.0098 44.6553C64.9588 46.9236 64.3808 47.4775 62.5153 47.4775H61.2804V50.1151H62.7255C65.6157 50.1151 67.0345 48.849 68.6373 45.2619L75.1533 30.7553H72.0529Z"
        fill="white"/>
    <path fill-rule="evenodd" clip-rule="evenodd"
          d="M4.23725 0.12554C2.42341 0.115405 0.944821 1.58327 0.934725 3.4041L5.19698e-05 171.971C-0.0100442 173.792 1.45218 175.276 3.26602 175.287L95.2249 175.8C97.0387 175.811 98.5173 174.343 98.5274 172.522L99.4621 3.95464C99.4722 2.13381 98.01 0.649511 96.1961 0.639376L4.23725 0.12554ZM13.2695 13.2914C12.3626 13.2914 11.6273 14.0295 11.6273 14.9399V153.412C11.6273 154.323 12.3626 155.061 13.2695 155.061H85.524C86.431 155.061 87.1662 154.323 87.1662 153.412V14.9399C87.1662 14.0295 86.431 13.2914 85.524 13.2914H13.2695ZM41.186 160.83C41.186 159.92 41.9212 159.182 42.8282 159.182H55.9653C56.8723 159.182 57.6075 159.92 57.6075 160.83V164.127C57.6075 165.038 56.8723 165.776 55.9653 165.776H42.8282C41.9212 165.776 41.186 165.038 41.186 164.127V160.83ZM39.9544 3.40032C39.2742 3.40032 38.7228 3.95386 38.7228 4.63668C38.7228 5.3195 39.2742 5.87304 39.9544 5.87304H58.018C58.6982 5.87304 59.2496 5.3195 59.2496 4.63668C59.2496 3.95386 58.6982 3.40032 58.018 3.40032H39.9544Z"
          fill="#5066F6"/>
    <g filter="url(#filter0_b_1_4415)">
        <path
            d="M18.0645 81.2648C18.0645 78.9887 19.9025 77.1436 22.1698 77.1436H77.2724C79.5398 77.1436 81.3778 78.9887 81.3778 81.2648V144.17C81.3778 146.446 79.5398 148.291 77.2724 148.291H22.1698C19.9025 148.291 18.0645 146.446 18.0645 144.17V81.2648Z"
            fill="#5066F6"/>
    </g>
    <path
        d="M20.5957 90.1593C20.5957 87.8832 22.4337 86.0381 24.7011 86.0381H74.7386C77.0059 86.0381 78.844 87.8832 78.844 90.1593V90.8103C78.844 93.0864 77.0059 94.9315 74.7386 94.9315H24.7011C22.4337 94.9315 20.5957 93.0864 20.5957 90.8103V90.1593Z"
        fill="url(#paint0_linear_1_4415)"/>
    <path
        d="M68.7168 141.622C68.7168 140.394 69.7084 139.399 70.9316 139.399H74.0996C75.3228 139.399 76.3144 140.394 76.3144 141.622C76.3144 142.85 75.3228 143.846 74.0996 143.846H70.9316C69.7084 143.846 68.7168 142.85 68.7168 141.622Z"
        fill="url(#paint1_linear_1_4415)"/>
    <path
        d="M58.5859 141.622C58.5859 140.394 59.5775 139.399 60.8007 139.399H63.9687C65.1919 139.399 66.1835 140.394 66.1835 141.622C66.1835 142.85 65.1919 143.846 63.9687 143.846H60.8008C59.5775 143.846 58.5859 142.85 58.5859 141.622Z"
        fill="url(#paint2_linear_1_4415)"/>
    <g filter="url(#filter1_b_1_4415)">
        <path
            d="M62.1393 67.6844C70.0915 74.3844 70.9974 86.3918 64.1628 94.5038C57.3281 102.616 45.3411 103.761 37.3889 97.0606C29.4367 90.3606 28.5308 78.3531 35.3655 70.2411C42.2001 62.1291 54.1872 60.9844 62.1393 67.6844Z"
            fill="white" fill-opacity="0.3"/>
    </g>
    <g filter="url(#filter2_b_1_4415)">
        <path fill-rule="evenodd" clip-rule="evenodd"
              d="M60.507 69.6213C67.6722 75.6583 68.768 86.2808 62.8042 93.3592C56.8404 100.438 46.1861 101.16 39.0208 95.1232C31.8556 89.0862 30.7598 78.4637 36.7235 71.3853C42.6873 64.3069 53.3417 63.5844 60.507 69.6213ZM61.2828 92.0773C66.5081 85.8755 65.5869 76.5027 59.2251 71.1428C52.8634 65.7828 43.4703 66.4653 38.245 72.6672C33.0197 78.869 33.9409 88.2418 40.3026 93.6018C46.6644 98.9617 56.0575 98.2792 61.2828 92.0773Z"
              fill="url(#paint3_linear_1_4415)"/>
    </g>
    <path fill-rule="evenodd" clip-rule="evenodd"
          d="M57.4524 74.0841C58.5895 74.8673 58.8795 76.4284 58.1 77.5709L49.6127 90.011C49.1427 90.6998 48.3624 91.1084 47.5312 91.1009C46.7 91.0933 45.9271 90.6706 45.4696 89.9733L41.1761 83.4293C40.4173 82.2728 40.7353 80.7173 41.8863 79.9549C43.0373 79.1925 44.5856 79.512 45.3444 80.6685L47.5942 84.0976L53.9821 74.7348C54.7616 73.5923 56.3153 73.301 57.4524 74.0841Z"
          fill="white"/>
    <path
        d="M27.0957 108.512C27.0957 107.832 27.6471 107.281 28.3273 107.281H70.2021C70.8823 107.281 71.4337 107.832 71.4337 108.512C71.4337 109.193 70.8823 109.744 70.2021 109.744H28.3273C27.6471 109.744 27.0957 109.193 27.0957 108.512Z"
        fill="white"/>
    <path
        d="M27.0957 118.365C27.0957 117.685 27.6471 117.134 28.3273 117.134H70.2021C70.8823 117.134 71.4337 117.685 71.4337 118.365C71.4337 119.046 70.8823 119.597 70.2021 119.597H28.3273C27.6471 119.597 27.0957 119.046 27.0957 118.365Z"
        fill="white"/>
    <path
        d="M27.0957 129.039C27.0957 128.359 27.6471 127.808 28.3273 127.808H70.2021C70.8823 127.808 71.4337 128.359 71.4337 129.039C71.4337 129.719 70.8823 130.271 70.2021 130.271H28.3273C27.6471 130.271 27.0957 129.719 27.0957 129.039Z"
        fill="white"/>
    <path
        d="M27.0957 139.713C27.0957 139.033 27.6471 138.481 28.3273 138.481H70.2021C70.8823 138.481 71.4337 139.033 71.4337 139.713C71.4337 140.393 70.8823 140.945 70.2021 140.945H28.3273C27.6471 140.945 27.0957 140.393 27.0957 139.713Z"
        fill="white"/>
    <defs>
        <filter id="filter0_b_1_4415" x="-45.9355" y="13.1436" width="191.312" height="199.147"
                filterUnits="userSpaceOnUse" color-interpolation-filters="sRGB">
            <feFlood flood-opacity="0" result="BackgroundImageFix"/>
            <feGaussianBlur in="BackgroundImageFix" stdDeviation="32"/>
            <feComposite in2="SourceAlpha" operator="in" result="effect1_backgroundBlur_1_4415"/>
            <feBlend mode="normal" in="SourceGraphic" in2="effect1_backgroundBlur_1_4415" result="shape"/>
        </filter>
        <filter id="filter1_b_1_4415" x="17.2391" y="49.7836" width="65.0491" height="65.178"
                filterUnits="userSpaceOnUse" color-interpolation-filters="sRGB">
            <feFlood flood-opacity="0" result="BackgroundImageFix"/>
            <feGaussianBlur in="BackgroundImageFix" stdDeviation="6.7691"/>
            <feComposite in2="SourceAlpha" operator="in" result="effect1_backgroundBlur_1_4415"/>
            <feBlend mode="normal" in="SourceGraphic" in2="effect1_backgroundBlur_1_4415" result="shape"/>
        </filter>
        <filter id="filter2_b_1_4415" x="19.329" y="52.0028" width="60.8694" height="60.739"
                filterUnits="userSpaceOnUse" color-interpolation-filters="sRGB">
            <feFlood flood-opacity="0" result="BackgroundImageFix"/>
            <feGaussianBlur in="BackgroundImageFix" stdDeviation="6.7691"/>
            <feComposite in2="SourceAlpha" operator="in" result="effect1_backgroundBlur_1_4415"/>
            <feBlend mode="normal" in="SourceGraphic" in2="effect1_backgroundBlur_1_4415" result="shape"/>
        </filter>
        <linearGradient id="paint0_linear_1_4415" x1="80.1102" y1="90.4848" x2="20.5957" y2="90.4848"
                        gradientUnits="userSpaceOnUse">
            <stop stop-color="#5066F6"/>
            <stop offset="1" stop-color="#5066F6" stop-opacity="0"/>
        </linearGradient>
        <linearGradient id="paint1_linear_1_4415" x1="76.4796" y1="141.622" x2="68.7168" y2="141.622"
                        gradientUnits="userSpaceOnUse">
            <stop stop-color="#5066F6"/>
            <stop offset="1" stop-color="#5066F6" stop-opacity="0"/>
        </linearGradient>
        <linearGradient id="paint2_linear_1_4415" x1="66.3487" y1="141.622" x2="58.5859" y2="141.622"
                        gradientUnits="userSpaceOnUse">
            <stop stop-color="#5066F6"/>
            <stop offset="1" stop-color="#5066F6" stop-opacity="0"/>
        </linearGradient>
        <linearGradient id="paint3_linear_1_4415" x1="36.9261" y1="111.299" x2="58.0095" y2="66.0869"
                        gradientUnits="userSpaceOnUse">
            <stop stop-color="white"/>
            <stop offset="1" stop-color="white" stop-opacity="0"/>
        </linearGradient>
    </defs>
</svg>
