<svg width="50" height="42" viewBox="0 0 50 42" fill="none" xmlns="http://www.w3.org/2000/svg">
    <path
        d="M36.3462 17.7692C36.3462 27.5829 28.3357 35.5385 18.4544 35.5385C15.3181 35.5385 12.3704 34.737 9.80736 33.3292C9.49419 33.1571 9.1478 33.0574 8.79111 33.0786C7.29638 33.1675 4.3628 33.5434 2.29663 33.8239C1.08548 33.9883 0.1006 33.0372 0.557837 31.9037C0.913338 31.0224 1.49538 29.9325 2.44834 28.7289C3.02785 27.997 3.12093 26.9781 2.67728 26.1567C1.32795 23.6585 0.562623 20.8026 0.562623 17.7692C0.562623 7.95555 8.57304 0 18.4544 0C28.3357 0 36.3462 7.95555 36.3462 17.7692Z"
        fill="#1CF4FF"/>
    <path
        d="M15 24.3654C15 33.956 22.6544 41.7308 32.0966 41.7308C35.0821 41.7308 37.8888 40.9535 40.3314 39.5873C40.6491 39.4096 41.0023 39.3061 41.3656 39.329C42.7778 39.4181 45.4758 39.77 47.4267 40.04C48.6399 40.2079 49.6308 39.2564 49.1744 38.1199C48.834 37.2723 48.2853 36.2333 47.4011 35.0888C46.8402 34.3627 46.7494 33.3646 47.1774 32.553C48.4637 30.1137 49.1932 27.3261 49.1932 24.3654C49.1932 14.7747 41.5388 7 32.0966 7C22.6544 7 15 14.7747 15 24.3654Z"
        fill="#18FE6A" fill-opacity="0.81"/>
    <g clip-path="url(#clip0_1_4348)">
        <path d="M23 23H31V15H23V23ZM25 17H29V21H25V17Z" fill="white"/>
        <path d="M23 33H31V25H23V33ZM25 27H29V31H25V27Z" fill="white"/>
        <path d="M33 15V23H41V15H33ZM39 21H35V17H39V21Z" fill="white"/>
        <path d="M41 31H39V33H41V31Z" fill="white"/>
        <path d="M35 25H33V27H35V25Z" fill="white"/>
        <path d="M37 27H35V29H37V27Z" fill="white"/>
        <path d="M35 29H33V31H35V29Z" fill="white"/>
        <path d="M37 31H35V33H37V31Z" fill="white"/>
        <path d="M39 29H37V31H39V29Z" fill="white"/>
        <path d="M39 25H37V27H39V25Z" fill="white"/>
        <path d="M41 27H39V29H41V27Z" fill="white"/>
    </g>
    <defs>
        <clipPath id="clip0_1_4348">
            <rect width="24" height="24" fill="white" transform="translate(20 12)"/>
        </clipPath>
    </defs>
</svg>
