<svg width="144" height="37" viewBox="0 0 144 37" fill="none" xmlns="http://www.w3.org/2000/svg">
    <g id="casheer app store">
        <g id="Group">
            <g id="&#60;Group&#62;">
                <g id="&#60;Group&#62;_2">
                    <g id="&#60;Group&#62;_3">
                        <path id="&#60;Path&#62;"
                              d="M22.046 17.126C22.0614 15.9211 22.3803 14.7396 22.9728 13.6916C23.5654 12.6436 24.4124 11.7631 25.435 11.132C24.7853 10.2006 23.9283 9.43413 22.9319 8.89342C21.9356 8.35271 20.8273 8.05266 19.6952 8.0171C17.2803 7.76265 14.9391 9.4677 13.7085 9.4677C12.454 9.4677 10.5593 8.04236 8.51899 8.0845C7.19926 8.1273 5.91309 8.51254 4.78577 9.20268C3.65846 9.89281 2.72846 10.8643 2.08639 12.0225C-0.694943 16.8564 1.37968 23.9605 4.04396 27.8679C5.37695 29.7812 6.93484 31.9184 8.97331 31.8426C10.9681 31.7596 11.7131 30.5657 14.1209 30.5657C16.5064 30.5657 17.2054 31.8426 19.2852 31.7944C21.4257 31.7595 22.7743 29.8726 24.0605 27.9412C25.0183 26.5779 25.7553 25.0711 26.2442 23.4768C25.0006 22.9488 23.9394 22.065 23.1929 20.9357C22.4463 19.8063 22.0474 18.4814 22.046 17.126Z"
                              fill="white"/>
                        <path id="&#60;Path&#62;_2"
                              d="M18.1182 5.44784C19.2852 4.04145 19.8602 2.23377 19.721 0.408691C17.938 0.596681 16.2909 1.45211 15.1081 2.80455C14.5298 3.46524 14.0868 4.23388 13.8046 5.06652C13.5224 5.89916 13.4064 6.77947 13.4633 7.65713C14.3551 7.66635 15.2374 7.47231 16.0437 7.08962C16.85 6.70694 17.5593 6.14558 18.1182 5.44784Z"
                              fill="white"/>
                    </g>
                </g>
                <g id="Group_2">
                    <path id="Vector"
                          d="M47.2608 26.9995H40.4536L38.8188 31.8449H35.9355L42.3832 13.918H45.3788L51.8265 31.8449H48.8941L47.2608 26.9995ZM41.1586 24.7635H46.5544L43.8944 16.8997H43.82L41.1586 24.7635Z"
                          fill="white"/>
                    <path id="Vector_2"
                          d="M65.7511 25.3102C65.7511 29.3718 63.5855 31.9813 60.3175 31.9813C59.4896 32.0248 58.6663 31.8334 57.9418 31.429C57.2172 31.0246 56.6208 30.4235 56.2208 29.6946H56.1589V36.1684H53.4863V18.7744H56.0733V20.9483H56.1225C56.5409 20.2229 57.1474 19.625 57.8774 19.2181C58.6075 18.8112 59.4337 18.6106 60.2683 18.6377C63.5728 18.6377 65.7511 21.2599 65.7511 25.3102ZM63.0041 25.3102C63.0041 22.6641 61.6418 20.9244 59.5633 20.9244C57.5213 20.9244 56.1477 22.7007 56.1477 25.3102C56.1477 27.9437 57.5213 29.7074 59.5633 29.7074C61.6418 29.7074 63.0041 27.9804 63.0041 25.3102Z"
                          fill="white"/>
                    <path id="Vector_3"
                          d="M80.0812 25.3104C80.0812 29.3721 77.9156 31.9816 74.6475 31.9816C73.8197 32.025 72.9963 31.8336 72.2718 31.4292C71.5473 31.0248 70.9509 30.4237 70.5509 29.6949H70.489V36.1686H67.8164V18.7746H70.4033V20.9485H70.4525C70.8709 20.2232 71.4774 19.6252 72.2075 19.2184C72.9375 18.8115 73.7638 18.6109 74.5983 18.6379C77.903 18.6379 80.0812 21.2601 80.0812 25.3104ZM77.3342 25.3104C77.3342 22.6643 75.9719 20.9246 73.8933 20.9246C71.8513 20.9246 70.4778 22.7009 70.4778 25.3104C70.4778 27.9439 71.8513 29.7076 73.8933 29.7076C75.9719 29.7076 77.3342 27.9806 77.3342 25.3104H77.3342Z"
                          fill="white"/>
                    <path id="Vector_4"
                          d="M89.5542 26.8501C89.7522 28.6278 91.4727 29.7951 93.8236 29.7951C96.0763 29.7951 97.697 28.6278 97.697 27.0248C97.697 25.6334 96.7195 24.8002 94.4051 24.2292L92.0906 23.6695C88.8113 22.8744 87.2889 21.3349 87.2889 18.8368C87.2889 15.7437 89.9741 13.6191 93.7871 13.6191C97.5608 13.6191 100.148 15.7437 100.235 18.8368H97.5369C97.3754 17.0478 95.9021 15.9679 93.7492 15.9679C91.5962 15.9679 90.123 17.0605 90.123 18.6507C90.123 19.9181 91.0639 20.6639 93.3658 21.2348L95.3333 21.7198C98.9975 22.5896 100.52 24.0671 100.52 26.6893C100.52 30.0431 97.8585 32.1437 93.6256 32.1437C89.6651 32.1437 86.9911 30.0925 86.8184 26.85L89.5542 26.8501Z"
                          fill="white"/>
                    <path id="Vector_5"
                          d="M106.287 15.6816V18.7747H108.763V20.8993H106.287V28.1047C106.287 29.2241 106.783 29.7457 107.872 29.7457C108.165 29.7406 108.459 29.7198 108.751 29.6836V31.7955C108.261 31.8873 107.764 31.9289 107.266 31.9196C104.63 31.9196 103.602 30.9257 103.602 28.3909V20.8993H101.709V18.7747H103.602V15.6816H106.287Z"
                          fill="white"/>
                    <path id="Vector_6"
                          d="M110.197 25.3103C110.197 21.1979 112.61 18.6138 116.372 18.6138C120.148 18.6138 122.549 21.1979 122.549 25.3103C122.549 29.4339 120.16 32.0068 116.372 32.0068C112.586 32.0068 110.197 29.4339 110.197 25.3103ZM119.826 25.3103C119.826 22.4893 118.538 20.8243 116.372 20.8243C114.207 20.8243 112.92 22.502 112.92 25.3103C112.92 28.1425 114.207 29.7948 116.372 29.7948C118.538 29.7948 119.826 28.1425 119.826 25.3103H119.826Z"
                          fill="white"/>
                    <path id="Vector_7"
                          d="M124.752 18.7743H127.301V20.9989H127.363C127.535 20.3041 127.941 19.6901 128.511 19.2601C129.081 18.83 129.782 18.6102 130.495 18.6375C130.803 18.6364 131.11 18.67 131.41 18.7376V21.2471C131.022 21.1278 130.616 21.073 130.21 21.0849C129.821 21.0691 129.434 21.1378 129.075 21.2864C128.716 21.4349 128.393 21.6597 128.128 21.9454C127.863 22.2311 127.664 22.5709 127.542 22.9414C127.421 23.3119 127.381 23.7044 127.425 24.092V31.8444H124.752L124.752 18.7743Z"
                          fill="white"/>
                    <path id="Vector_8"
                          d="M143.733 28.0058C143.374 30.3785 141.072 32.0068 138.127 32.0068C134.339 32.0068 131.988 29.4593 131.988 25.3723C131.988 21.2726 134.352 18.6138 138.015 18.6138C141.617 18.6138 143.882 21.0978 143.882 25.0607V25.9799H134.686V26.142C134.644 26.6231 134.704 27.1076 134.862 27.5636C135.021 28.0195 135.274 28.4364 135.605 28.7866C135.936 29.1367 136.338 29.4121 136.784 29.5945C137.229 29.7768 137.708 29.8619 138.189 29.8441C138.82 29.9036 139.454 29.7567 139.996 29.4255C140.538 29.0943 140.958 28.5963 141.196 28.0058L143.733 28.0058ZM134.699 24.1049H141.208C141.232 23.6724 141.167 23.2396 141.016 22.8336C140.866 22.4277 140.633 22.0573 140.333 21.7458C140.034 21.4343 139.673 21.1884 139.274 21.0236C138.875 20.8587 138.446 20.7784 138.015 20.7877C137.579 20.7851 137.148 20.869 136.745 21.0346C136.343 21.2003 135.976 21.4444 135.668 21.7528C135.36 22.0612 135.116 22.4278 134.949 22.8315C134.783 23.2352 134.698 23.668 134.699 24.1049V24.1049Z"
                          fill="white"/>
                </g>
            </g>
        </g>
        <g id="&#60;Group&#62;_4">
            <g id="Group_3">
                <path id="Vector_9"
                      d="M40.8242 0.424569C41.3845 0.384207 41.9467 0.469179 42.4704 0.673355C42.994 0.877531 43.466 1.19582 43.8522 1.60527C44.2385 2.01472 44.5294 2.50512 44.704 3.04109C44.8786 3.57707 44.9325 4.14526 44.8618 4.70469C44.8618 7.4566 43.3802 9.03845 40.8242 9.03845H37.7246V0.424569H40.8242ZM39.0574 7.82026H40.6753C41.0757 7.84429 41.4763 7.77839 41.8481 7.62737C42.22 7.47634 42.5535 7.24399 42.8246 6.94723C43.0957 6.65047 43.2974 6.29677 43.4152 5.91187C43.5329 5.52698 43.5636 5.12057 43.5052 4.72224C43.5594 4.32549 43.5255 3.9216 43.406 3.53953C43.2865 3.15745 43.0842 2.80664 42.8138 2.51224C42.5433 2.21785 42.2113 1.98714 41.8416 1.83666C41.4719 1.68619 41.0736 1.61966 40.6753 1.64185H39.0574V7.82026Z"
                      fill="white"/>
                <path id="Vector_10"
                      d="M46.366 5.78545C46.3253 5.35826 46.374 4.92724 46.5089 4.52004C46.6439 4.11283 46.8621 3.73844 47.1497 3.42087C47.4372 3.1033 47.7877 2.84956 48.1787 2.67592C48.5696 2.50229 48.9924 2.4126 49.4199 2.4126C49.8474 2.4126 50.2702 2.50229 50.6612 2.67592C51.0521 2.84956 51.4026 3.1033 51.6902 3.42087C51.9777 3.73844 52.1959 4.11283 52.3309 4.52004C52.4658 4.92724 52.5145 5.35826 52.4738 5.78545C52.5153 6.21309 52.4672 6.6447 52.3326 7.05256C52.198 7.46042 51.9799 7.8355 51.6923 8.1537C51.4047 8.4719 51.0539 8.72617 50.6626 8.90017C50.2712 9.07418 49.8479 9.16407 49.4199 9.16407C48.9919 9.16407 48.5686 9.07418 48.1773 8.90017C47.7859 8.72617 47.4352 8.4719 47.1475 8.1537C46.8599 7.8355 46.6418 7.46042 46.5072 7.05256C46.3726 6.6447 46.3245 6.21309 46.366 5.78545ZM51.1593 5.78545C51.1593 4.37637 50.5287 3.55235 49.422 3.55235C48.3111 3.55235 47.6862 4.37637 47.6862 5.78547C47.6862 7.20584 48.3112 8.02351 49.422 8.02351C50.5287 8.02349 51.1593 7.20018 51.1593 5.78545H51.1593Z"
                      fill="white"/>
                <path id="Vector_11"
                      d="M60.5947 9.03765H59.2689L57.9305 4.25H57.8294L56.4966 9.03765H55.1835L53.3984 2.53711H54.6947L55.8548 7.49741H55.9503L57.2817 2.53711H58.5077L59.8391 7.49741H59.9402L61.0946 2.53711H62.3727L60.5947 9.03765Z"
                      fill="white"/>
                <path id="Vector_12"
                      d="M63.8731 2.53764H65.1033V3.57031H65.1988C65.3608 3.19941 65.6341 2.8885 65.9805 2.68089C66.3269 2.47329 66.7292 2.37935 67.1313 2.41216C67.4464 2.38838 67.7628 2.43607 68.057 2.5517C68.3512 2.66733 68.6158 2.84793 68.8311 3.08013C69.0463 3.31233 69.2068 3.59017 69.3006 3.89307C69.3943 4.19597 69.419 4.51617 69.3727 4.82994V9.03811H68.0947V5.15211C68.0947 4.10745 67.6425 3.58794 66.6973 3.58794C66.4834 3.57793 66.2698 3.61448 66.0713 3.69508C65.8728 3.77568 65.6939 3.89842 65.5471 4.05489C65.4002 4.21135 65.2888 4.39785 65.2204 4.60159C65.1521 4.80533 65.1284 5.0215 65.1511 5.23527V9.03819H63.873L63.8731 2.53764Z"
                      fill="white"/>
                <path id="Vector_13" d="M71.4102 0H72.6882V9.03816H71.4102V0Z" fill="white"/>
                <path id="Vector_14"
                      d="M74.4636 5.7846C74.4229 5.35737 74.4717 4.92633 74.6066 4.51911C74.7416 4.11189 74.9599 3.73749 75.2475 3.41991C75.5351 3.10233 75.8856 2.84859 76.2766 2.67495C76.6675 2.50131 77.0904 2.41162 77.5179 2.41162C77.9454 2.41162 78.3682 2.50131 78.7592 2.67495C79.1502 2.84859 79.5007 3.10233 79.7883 3.41991C80.0759 3.73749 80.2941 4.11189 80.4291 4.51911C80.5641 4.92633 80.6128 5.35737 80.5721 5.7846C80.6136 6.21225 80.5654 6.64387 80.4308 7.05173C80.2961 7.45959 80.078 7.83466 79.7903 8.15284C79.5027 8.47103 79.1519 8.72529 78.7606 8.89929C78.3692 9.07329 77.9459 9.16318 77.5179 9.16318C77.0899 9.16318 76.6666 9.07329 76.2752 8.89929C75.8838 8.72529 75.5331 8.47103 75.2454 8.15284C74.9578 7.83466 74.7396 7.45959 74.605 7.05173C74.4703 6.64387 74.4222 6.21225 74.4636 5.7846ZM79.2569 5.7846C79.2569 4.37552 78.6263 3.5515 77.5196 3.5515C76.4087 3.5515 75.7838 4.37552 75.7838 5.78461C75.7838 7.20498 76.4088 8.02265 77.5196 8.02265C78.6263 8.02264 79.2569 7.19932 79.2569 5.7846H79.2569Z"
                      fill="white"/>
                <path id="Vector_15"
                      d="M81.918 7.20024C81.918 6.03011 82.7859 5.35553 84.3265 5.25966L86.0807 5.15816V4.59706C86.0807 3.91049 85.6284 3.5228 84.7549 3.5228C84.0415 3.5228 83.5471 3.78573 83.4052 4.24532H82.168C82.2986 3.12877 83.3449 2.4126 84.8139 2.4126C86.4374 2.4126 87.3531 3.22392 87.3531 4.59706V9.03861H86.1228V8.12507H86.0217C85.8164 8.45276 85.5282 8.7199 85.1865 8.89921C84.8448 9.07853 84.4617 9.16359 84.0766 9.14571C83.8047 9.1741 83.5299 9.14498 83.27 9.06024C83.01 8.9755 82.7706 8.83702 82.5673 8.65373C82.3639 8.47043 82.201 8.24639 82.0892 7.99604C81.9774 7.74569 81.919 7.4746 81.918 7.20024ZM86.0807 6.64477V6.10131L84.4993 6.20281C83.6075 6.26272 83.203 6.56724 83.203 7.14031C83.203 7.72537 83.7086 8.06584 84.4038 8.06584C84.6075 8.08653 84.8133 8.06589 85.0089 8.00513C85.2045 7.94436 85.3859 7.84472 85.5424 7.71214C85.6988 7.57956 85.8271 7.41674 85.9196 7.23337C86.012 7.05 86.0668 6.84983 86.0807 6.64477Z"
                      fill="white"/>
                <path id="Vector_16"
                      d="M89.0332 5.7851C89.0332 3.73103 90.0851 2.42979 91.7213 2.42979C92.126 2.41108 92.5276 2.50838 92.8793 2.71034C93.2309 2.91229 93.5181 3.21055 93.7071 3.57026H93.8026V0H95.0806V9.03816H93.856V8.01112H93.7549C93.5512 8.36841 93.2541 8.66296 92.8956 8.86287C92.5372 9.06279 92.1311 9.16046 91.7213 9.14529C90.0739 9.14537 89.0332 7.8441 89.0332 5.7851ZM90.3534 5.7851C90.3534 7.16388 91.0008 7.99354 92.0837 7.99354C93.1608 7.99354 93.8265 7.15191 93.8265 5.79074C93.8265 4.43593 93.1538 3.5823 92.0837 3.5823C91.0078 3.5823 90.3534 4.41759 90.3534 5.7851H90.3534Z"
                      fill="white"/>
                <path id="Vector_17"
                      d="M100.368 5.78521C100.327 5.35801 100.376 4.92699 100.511 4.51979C100.646 4.11259 100.864 3.7382 101.152 3.42062C101.439 3.10305 101.79 2.84931 102.181 2.67568C102.572 2.50205 102.994 2.41235 103.422 2.41235C103.849 2.41235 104.272 2.50205 104.663 2.67568C105.054 2.84931 105.405 3.10305 105.692 3.42062C105.98 3.7382 106.198 4.11259 106.333 4.51979C106.468 4.92699 106.516 5.35801 106.476 5.78521C106.517 6.21284 106.469 6.64446 106.335 7.05232C106.2 7.46018 105.982 7.83526 105.694 8.15346C105.407 8.47165 105.056 8.72592 104.665 8.89993C104.273 9.07394 103.85 9.16383 103.422 9.16383C102.994 9.16383 102.571 9.07394 102.179 8.89993C101.788 8.72592 101.437 8.47165 101.149 8.15346C100.862 7.83526 100.644 7.46018 100.509 7.05232C100.375 6.64446 100.326 6.21284 100.368 5.78521ZM105.161 5.78521C105.161 4.37613 104.531 3.55211 103.424 3.55211C102.313 3.55211 101.688 4.37613 101.688 5.78522C101.688 7.20559 102.313 8.02326 103.424 8.02326C104.531 8.02325 105.161 7.19993 105.161 5.78521Z"
                      fill="white"/>
                <path id="Vector_18"
                      d="M108.191 2.53764H109.422V3.57031H109.517C109.679 3.19941 109.952 2.8885 110.299 2.68089C110.645 2.47329 111.048 2.37935 111.45 2.41216C111.765 2.38838 112.081 2.43607 112.375 2.5517C112.67 2.66733 112.934 2.84793 113.149 3.08013C113.365 3.31233 113.525 3.59017 113.619 3.89307C113.713 4.19597 113.737 4.51617 113.691 4.82994V9.03811H112.413V5.15211C112.413 4.10745 111.961 3.58794 111.016 3.58794C110.802 3.57793 110.588 3.61448 110.39 3.69508C110.191 3.77568 110.012 3.89842 109.865 4.05489C109.719 4.21135 109.607 4.39785 109.539 4.60159C109.47 4.80533 109.447 5.0215 109.469 5.23527V9.03819H108.191V2.53764Z"
                      fill="white"/>
                <path id="Vector_19"
                      d="M120.913 0.919434V2.56748H122.316V3.64809H120.913V6.9907C120.913 7.67163 121.192 7.9698 121.829 7.9698C121.991 7.96927 122.154 7.95939 122.316 7.94019V9.0088C122.086 9.05002 121.854 9.07195 121.621 9.07436C120.199 9.07436 119.634 8.57247 119.634 7.31917V3.64803H118.605V2.56742H119.634V0.919434H120.913Z"
                      fill="white"/>
                <path id="Vector_20"
                      d="M124.061 0H125.327V3.58228H125.428C125.598 3.20792 125.879 2.89525 126.232 2.68686C126.586 2.47848 126.995 2.38452 127.403 2.4178C127.716 2.40068 128.03 2.45321 128.321 2.57165C128.612 2.69008 128.873 2.87151 129.086 3.10298C129.299 3.33444 129.458 3.61025 129.553 3.91072C129.648 4.21119 129.675 4.52891 129.633 4.84123V9.03818H128.354V5.15771C128.354 4.1194 127.872 3.59355 126.969 3.59355C126.749 3.57546 126.529 3.60577 126.322 3.68236C126.115 3.75895 125.927 3.87997 125.772 4.03694C125.617 4.19392 125.498 4.38307 125.423 4.59115C125.348 4.79923 125.319 5.02122 125.339 5.24159V9.03815H124.061L124.061 0Z"
                      fill="white"/>
                <path id="Vector_21"
                      d="M137.085 7.28353C136.911 7.87764 136.535 8.39154 136.022 8.73534C135.509 9.07914 134.892 9.23094 134.279 9.16418C133.852 9.17549 133.428 9.09346 133.036 8.92379C132.644 8.75413 132.294 8.50088 132.009 8.18164C131.725 7.8624 131.513 7.48481 131.388 7.07508C131.263 6.66535 131.229 6.23329 131.287 5.80889C131.231 5.38319 131.266 4.9502 131.39 4.53924C131.514 4.12828 131.725 3.74894 132.008 3.42691C132.291 3.10487 132.64 2.84766 133.031 2.67268C133.422 2.4977 133.845 2.40904 134.273 2.41271C136.075 2.41271 137.162 3.64845 137.162 5.68974V6.13739H132.589V6.20928C132.569 6.44783 132.599 6.68795 132.677 6.91424C132.755 7.14053 132.879 7.34799 133.041 7.52333C133.204 7.69867 133.401 7.83801 133.62 7.93242C133.839 8.02682 134.075 8.07422 134.314 8.07156C134.62 8.1084 134.929 8.05314 135.204 7.91281C135.478 7.77248 135.705 7.55342 135.855 7.28348L137.085 7.28353ZM132.589 5.18858H135.86C135.876 4.97041 135.847 4.75127 135.773 4.54524C135.7 4.3392 135.585 4.15084 135.435 3.99225C135.284 3.83365 135.103 3.70834 134.902 3.62436C134.7 3.54037 134.484 3.49958 134.266 3.50459C134.045 3.5018 133.826 3.54346 133.621 3.62711C133.416 3.71077 133.23 3.83471 133.074 3.99166C132.918 4.1486 132.794 4.33535 132.711 4.54092C132.628 4.74649 132.586 4.9667 132.589 5.18858H132.589Z"
                      fill="white"/>
            </g>
        </g>
    </g>
</svg>
