<svg width="47" height="48" viewBox="0 0 47 48" fill="none" xmlns="http://www.w3.org/2000/svg">
    <g id="casheer invoice icon">
        <path id="Ellipse 39"
              d="M47 23.5C47 36.4787 36.4787 47 23.5 47C10.5213 47 0 36.4787 0 23.5C0 10.5213 10.5213 0 23.5 0C36.4787 0 47 10.5213 47 23.5Z"
              fill="#5066F6"/>
        <path id="Vector"
              d="M23.4765 0C10.5045 0 0 10.5686 0 23.5906C0 36.6127 10.5045 47.1813 23.4765 47.1813C36.472 47.1813 47 36.6127 47 23.5906C47 10.5686 36.472 0 23.4765 0ZM39.762 14.1544H32.8295C32.0775 11.2056 30.9965 8.37468 29.5865 5.75612C33.9105 7.24233 37.506 10.2619 39.762 14.1544ZM23.5 4.81249C25.4505 7.64337 26.978 10.7809 27.9885 14.1544H19.0115C20.022 10.7809 21.5495 7.64337 23.5 4.81249ZM5.311 28.3088C4.935 26.799 4.7 25.2184 4.7 23.5906C4.7 21.9629 4.935 20.3823 5.311 18.8725H13.254C13.066 20.4295 12.925 21.9865 12.925 23.5906C12.925 25.1948 13.066 26.7518 13.254 28.3088H5.311ZM7.238 33.0269H14.1705C14.9225 35.9757 16.0035 38.8066 17.4135 41.4252C13.0895 39.939 9.494 36.9429 7.238 33.0269ZM14.1705 14.1544H7.238C9.494 10.2383 13.0895 7.24233 17.4135 5.75612C16.0035 8.37468 14.9225 11.2056 14.1705 14.1544ZM23.5 42.3688C21.5495 39.5379 20.022 36.4004 19.0115 33.0269H27.9885C26.978 36.4004 25.4505 39.5379 23.5 42.3688ZM28.999 28.3088H18.001C17.7895 26.7518 17.625 25.1948 17.625 23.5906C17.625 21.9865 17.7895 20.4059 18.001 18.8725H28.999C29.2105 20.4059 29.375 21.9865 29.375 23.5906C29.375 25.1948 29.2105 26.7518 28.999 28.3088ZM29.5865 41.4252C30.9965 38.8066 32.0775 35.9757 32.8295 33.0269H39.762C37.506 36.9194 33.9105 39.939 29.5865 41.4252ZM33.746 28.3088C33.934 26.7518 34.075 25.1948 34.075 23.5906C34.075 21.9865 33.934 20.4295 33.746 18.8725H41.689C42.065 20.3823 42.3 21.9629 42.3 23.5906C42.3 25.2184 42.065 26.799 41.689 28.3088H33.746Z"
              fill="#1CF4FF"/>
    </g>
</svg>
