<svg width="42" height="57" viewBox="0 0 42 57" fill="none" xmlns="http://www.w3.org/2000/svg">
    <g id="casheer invoice icon">
        <path id="Exclude" fill-rule="evenodd" clip-rule="evenodd"
              d="M4.2899 2.2901C2.0808 2.27781 0.279998 4.05867 0.267702 6.26778L0.0137352 51.8944C0.00143887 54.1035 1.7823 55.9044 3.9914 55.9166L26.4867 56.0419C28.6958 56.0542 30.4966 54.2733 30.5089 52.0642L30.7629 6.43752C30.7752 4.22841 28.9943 2.42761 26.7852 2.41532L4.2899 2.2901ZM5.86614 7.67116C4.76157 7.67116 3.86614 8.56659 3.86614 9.67116V22.3026C3.86614 23.4071 4.76157 24.3026 5.86614 24.3026H26.1736C27.2782 24.3026 28.1736 23.4071 28.1736 22.3026V9.67116C28.1736 8.56659 27.2782 7.67116 26.1736 7.67116H5.86614ZM3.86614 28.1418C3.86614 28.8484 4.43892 29.4212 5.14548 29.4212H7.70416C8.41072 29.4212 8.9835 28.8484 8.9835 28.1418C8.9835 27.4353 8.41072 26.8625 7.70416 26.8625H5.14548C4.43892 26.8625 3.86614 27.4353 3.86614 28.1418ZM14.1338 29.4251C13.4272 29.4251 12.8544 28.8523 12.8544 28.1457C12.8544 27.4392 13.4272 26.8664 14.1338 26.8664H16.6924C17.399 26.8664 17.9718 27.4392 17.9718 28.1457C17.9718 28.8523 17.399 29.4251 16.6924 29.4251H14.1338ZM3.89934 35.1781C3.89934 36.2379 4.75851 37.0971 5.81835 37.0971H7.09769C8.15753 37.0971 9.0167 36.2379 9.0167 35.1781C9.0167 34.1182 8.15753 33.259 7.09769 33.259H5.81835C4.75851 33.259 3.89934 34.1182 3.89934 35.1781ZM5.81835 43.4934C4.75851 43.4934 3.89934 42.6343 3.89934 41.5744C3.89934 40.5146 4.75851 39.6554 5.81835 39.6554H7.09769C8.15753 39.6554 9.0167 40.5146 9.0167 41.5744C9.0167 42.6343 8.15753 43.4934 7.09769 43.4934H5.81835ZM3.89934 47.9719C3.89934 49.0317 4.75851 49.8909 5.81835 49.8909H7.09769C8.15753 49.8909 9.0167 49.0317 9.0167 47.9719C9.0167 46.912 8.15753 46.0529 7.09769 46.0529H5.81835C4.75851 46.0529 3.89934 46.912 3.89934 47.9719ZM14.7736 37.0969C13.7137 37.0969 12.8546 36.2377 12.8546 35.1779C12.8546 34.118 13.7137 33.2589 14.7736 33.2589H16.0529C17.1127 33.2589 17.9719 34.118 17.9719 35.1779C17.9719 36.2377 17.1127 37.0969 16.0529 37.0969H14.7736ZM12.8546 41.5746C12.8546 42.6345 13.7137 43.4936 14.7736 43.4936H16.0529C17.1127 43.4936 17.9719 42.6345 17.9719 41.5746C17.9719 40.5148 17.1127 39.6556 16.0529 39.6556H14.7736C13.7137 39.6556 12.8546 40.5148 12.8546 41.5746ZM14.7734 49.8899C13.7136 49.8899 12.8544 49.0307 12.8544 47.9709C12.8544 46.9111 13.7136 46.0519 14.7734 46.0519H16.0528C17.1126 46.0519 17.9718 46.9111 17.9718 47.9709C17.9718 49.0307 17.1126 49.8899 16.0528 49.8899H14.7734ZM21.8096 35.1779C21.8096 36.2377 22.6688 37.0969 23.7286 37.0969H25.0079C26.0678 37.0969 26.9269 36.2377 26.9269 35.1779C26.9269 34.118 26.0678 33.2589 25.0079 33.2589H23.7286C22.6688 33.2589 21.8096 34.118 21.8096 35.1779ZM23.7286 43.4936C22.6688 43.4936 21.8096 42.6345 21.8096 41.5746C21.8096 40.5148 22.6688 39.6556 23.7286 39.6556H25.0079C26.0678 39.6556 26.9269 40.5148 26.9269 41.5746C26.9269 42.6345 26.0678 43.4936 25.0079 43.4936H23.7286ZM21.8095 47.9709C21.8095 49.0307 22.6687 49.8899 23.7285 49.8899H25.0078C26.0677 49.8899 26.9269 49.0307 26.9269 47.9709C26.9269 46.9111 26.0677 46.0519 25.0078 46.0519H23.7285C22.6687 46.0519 21.8095 46.9111 21.8095 47.9709ZM23.0908 29.4251C22.3842 29.4251 21.8115 28.8523 21.8115 28.1457C21.8115 27.4392 22.3842 26.8664 23.0908 26.8664H25.6495C26.356 26.8664 26.9288 27.4392 26.9288 28.1457C26.9288 28.8523 26.356 29.4251 25.6495 29.4251H23.0908Z"
              fill="#7D00E2"/>
        <g id="Group 165">
            <rect id="Rectangle 145" x="9.01758" width="31.9835" height="20.4694" rx="1" fill="#1CF4FF"/>
            <rect id="Rectangle 146" x="10.2969" y="2.55859" width="29.4248" height="2.55868" rx="1"
                  fill="url(#paint0_linear_1_4107)"/>
            <rect id="Rectangle 147" x="34.6055" y="17.9111" width="3.83802" height="1.27934" rx="0.63967"
                  fill="url(#paint1_linear_1_4107)"/>
            <rect id="Rectangle 148" x="29.4883" y="17.9111" width="3.83802" height="1.27934" rx="0.63967"
                  fill="url(#paint2_linear_1_4107)"/>
        </g>
    </g>
    <defs>
        <linearGradient id="paint0_linear_1_4107" x1="40.3613" y1="3.83792" x2="10.2969" y2="3.83793"
                        gradientUnits="userSpaceOnUse">
            <stop stop-color="#5066F6"/>
            <stop offset="1" stop-color="#5066F6" stop-opacity="0"/>
        </linearGradient>
        <linearGradient id="paint1_linear_1_4107" x1="38.5269" y1="18.5508" x2="34.6055" y2="18.5508"
                        gradientUnits="userSpaceOnUse">
            <stop stop-color="#5066F6"/>
            <stop offset="1" stop-color="#5066F6" stop-opacity="0"/>
        </linearGradient>
        <linearGradient id="paint2_linear_1_4107" x1="33.4097" y1="18.5508" x2="29.4883" y2="18.5508"
                        gradientUnits="userSpaceOnUse">
            <stop stop-color="#5066F6"/>
            <stop offset="1" stop-color="#5066F6" stop-opacity="0"/>
        </linearGradient>
    </defs>
</svg>
