<svg width="22" height="23" viewBox="0 0 22 23" fill="none" xmlns="http://www.w3.org/2000/svg">
    <path id="icon_coll"
          d="M20.8881 16.4093V19.4208C20.8892 19.7004 20.8322 19.9771 20.7206 20.2332C20.6091 20.4894 20.4454 20.7193 20.2402 20.9083C20.035 21.0973 19.7927 21.2412 19.5289 21.3308C19.265 21.4203 18.9855 21.4536 18.7081 21.4285C15.631 21.0928 12.6751 20.0373 10.0781 18.3467C7.66194 16.8055 5.61345 14.7492 4.07812 12.3237C2.38809 9.70497 1.33636 6.72339 1.00812 3.62057C0.983127 3.34298 1.01599 3.0632 1.10462 2.79906C1.19324 2.53492 1.33569 2.29219 1.52288 2.08634C1.71008 1.88049 1.93792 1.71602 2.19191 1.6034C2.44589 1.49078 2.72046 1.43249 2.99812 1.43223H5.99812C6.48342 1.42743 6.95391 1.59994 7.32188 1.91761C7.68985 2.23527 7.93019 2.67642 7.99812 3.15881C8.12474 4.12255 8.35957 5.06882 8.69812 5.97956C8.83266 6.33885 8.86178 6.72933 8.78202 7.10473C8.70227 7.48013 8.51698 7.8247 8.24812 8.09763L6.97812 9.37249C8.40167 11.8856 10.4746 13.9665 12.9781 15.3955L14.2481 14.1206C14.52 13.8507 14.8633 13.6647 15.2372 13.5846C15.6112 13.5046 16.0002 13.5338 16.3581 13.6689C17.2654 14.0087 18.2081 14.2444 19.1681 14.3716C19.6539 14.4403 20.0975 14.686 20.4146 15.0617C20.7318 15.4374 20.9003 15.917 20.8881 16.4093Z"
          stroke="white" stroke-width="2" stroke-linecap="round" stroke-linejoin="round"/>
</svg>
