<svg width="72" height="49" viewBox="0 0 72 49" fill="none" xmlns="http://www.w3.org/2000/svg">
    <g id="PCI DSS ">
        <path id="casheer partner logo 4"
              d="M71.5827 30.0814C70.6288 27.991 69.6921 25.8926 68.7531 23.7954C65.3414 16.1749 61.9297 8.55453 58.5283 0.929499C58.3905 0.621824 58.2402 0.496219 57.8923 0.519266C55.8892 0.648328 53.8837 0.752039 51.8794 0.86612C45.9617 1.20376 40.0441 1.54254 34.1264 1.87672C29.8124 2.12102 25.4984 2.3584 21.1844 2.60154C16.0692 2.89078 10.9539 3.18347 5.83869 3.47617C4.02493 3.57988 2.21233 3.69857 0.39857 3.78039C-0.0422419 3.79998 -0.0755324 3.95093 0.0966596 4.28396C0.113879 4.31738 0.118471 4.35771 0.132246 4.39343C3.69203 14.1226 7.25181 23.853 10.8139 33.581C10.8851 33.7758 10.939 33.9867 11.1169 34.1238C11.3752 33.8299 11.2983 33.4693 11.2983 33.1328C11.3029 27.4736 11.3006 21.8145 11.3018 16.1554C11.3018 15.3003 11.3052 15.29 12.1685 15.2992C15.0337 15.3291 17.8979 15.2392 20.7631 15.3994C22.6917 15.5077 24.5491 15.8304 26.3249 16.6209C30.4667 18.4635 30.1625 23.6029 27.9929 25.6599C26.8989 26.697 25.6316 27.34 24.2173 27.7398C22.5482 28.2111 20.8355 28.331 19.1078 28.3091C18.2985 28.2987 18.1837 28.4289 18.1791 29.2482C18.1711 30.6875 18.178 32.1256 18.1757 33.5649C18.1757 33.7573 18.1826 33.9486 18.2549 34.1307C18.1034 34.3139 17.8979 34.2171 17.7211 34.2194C16.7648 34.2309 15.8086 34.2252 14.8524 34.2252C13.6137 34.2252 12.3751 34.2252 11.1032 34.2252C11.133 34.3692 11.1399 34.4637 11.172 34.5501C12.7838 38.9555 14.4024 43.3586 16.0026 47.7686C16.1277 48.1132 16.2666 48.1351 16.58 48.036C30.9041 43.5027 45.2305 38.9786 59.5557 34.4487C59.6762 34.4107 59.8404 34.4188 59.9242 34.2252C57.7477 34.2252 55.6068 34.2114 53.4658 34.2367C53.0136 34.2425 52.8953 34.1249 52.8965 33.6675C52.9125 27.6983 52.9056 21.7292 52.9125 15.7601C52.9125 15.5873 52.8046 15.3752 53.0136 15.2358C53.1766 15.2969 53.3465 15.3107 53.5187 15.3107C55.4989 15.3072 57.4791 15.3095 59.4593 15.3095C59.651 15.3095 59.8392 15.2957 60.0183 15.2197C60.0861 15.2369 60.1538 15.2542 60.2215 15.2704C60.2743 17.0934 60.2399 18.9164 60.2422 20.7394C60.2479 24.9443 60.2422 29.148 60.2491 33.3529C60.2491 33.6214 60.1308 33.9463 60.4718 34.1238C60.6187 34.0904 60.7702 34.0662 60.9137 34.0201C64.3748 32.9288 67.8313 31.8237 71.298 30.7532C71.7538 30.6115 71.7515 30.4536 71.5827 30.0814ZM49.5456 33.7308C46.9639 34.5156 44.327 34.6412 41.6592 34.4107C39.718 34.2436 37.848 33.7942 36.1112 32.8988C32.8751 31.2314 31.206 28.5453 31.1521 24.8993C31.0993 21.3455 32.6903 18.6732 35.6876 16.8468C38.1454 15.3487 40.8694 14.8693 43.706 14.8728C45.5094 14.8751 47.2899 15.0007 49.0164 15.5896C49.4193 15.7278 49.5181 15.9214 49.5112 16.3305C49.4825 17.8055 49.4997 19.2817 49.4997 20.8696C48.1279 20.1793 46.8101 19.6907 45.3866 19.5467C44.0584 19.4119 42.7475 19.451 41.5088 20.0226C39.5447 20.9283 38.7113 22.5566 38.7044 24.6458C38.6975 26.7569 39.6251 28.3448 41.5525 29.2471C43.4799 30.1494 45.4934 30.0353 47.5034 29.5744C48.2083 29.413 48.897 29.1745 49.5858 28.9463C49.867 28.853 49.9394 28.8991 49.9359 29.2056C49.9233 30.5492 49.9221 31.8929 49.9474 33.2353C49.9543 33.5637 49.8119 33.649 49.5456 33.7308ZM60.9275 9.85898C60.7105 11.8963 58.9071 13.3241 56.5515 13.3206C54.3773 13.3171 52.6921 12.1279 52.2674 10.298C51.628 7.54047 53.3511 5.23003 56.1624 5.07677C56.6583 5.05026 57.1542 5.05718 57.6444 5.16435C59.985 5.67253 61.1904 7.39527 60.9275 9.85898Z"
              fill="black"/>
        <path id="casheer partner logo 3"
              d="M18.2399 21.8584C18.2399 21.1289 18.2457 20.4007 18.2365 19.6712C18.2331 19.4212 18.2801 19.2794 18.5786 19.284C19.4774 19.2979 20.374 19.2944 21.2372 19.6032C22.2107 19.9501 22.725 20.6357 22.7686 21.6671C22.8157 22.7653 22.3438 23.5661 21.4117 23.9833C20.4945 24.3935 19.5142 24.367 18.543 24.4108C18.2158 24.4258 18.2388 24.2045 18.2399 23.9879C18.2411 23.2781 18.2399 22.5682 18.2399 21.8584Z"
              fill="black"/>
    </g>
</svg>
