<svg width="900" height="290" viewBox="0 0 900 290" fill="none" xmlns="http://www.w3.org/2000/svg">
    <g filter="url(#filter0_f_470_130)">
        <path
            d="M889 11H892.5V7.5H889V11ZM889 279V282.5H892.5V279H889ZM609.771 275.5C607.838 275.5 606.271 277.067 606.271 279C606.271 280.933 607.838 282.5 609.771 282.5V275.5ZM215 14.5H889V7.5H215V14.5ZM885.5 11V279H892.5V11H885.5ZM889 275.5H609.771V282.5H889V275.5Z"
            fill="#7D00E2"/>
    </g>
    <path
        d="M889 10H890.5V8.5H889V10ZM889 279V280.5H890.5V279H889ZM520.7 277.5C519.872 277.5 519.2 278.172 519.2 279C519.2 279.828 519.872 280.5 520.7 280.5V277.5ZM3.96875 11.5C4.79718 11.5 5.46875 10.8284 5.46875 10C5.46875 9.17157 4.79718 8.5 3.96875 8.5V11.5ZM11.9062 8.5C11.0778 8.5 10.4062 9.17157 10.4062 10C10.4062 10.8284 11.0778 11.5 11.9062 11.5V8.5ZM19.8438 11.5C20.6722 11.5 21.3438 10.8284 21.3438 10C21.3438 9.17157 20.6722 8.5 19.8438 8.5V11.5ZM27.7812 8.5C26.9528 8.5 26.2812 9.17157 26.2812 10C26.2812 10.8284 26.9528 11.5 27.7812 11.5V8.5ZM35.7188 11.5C36.5472 11.5 37.2188 10.8284 37.2188 10C37.2188 9.17157 36.5472 8.5 35.7188 8.5V11.5ZM43.6562 8.5C42.8278 8.5 42.1562 9.17157 42.1562 10C42.1562 10.8284 42.8278 11.5 43.6562 11.5V8.5ZM51.5938 11.5C52.4222 11.5 53.0938 10.8284 53.0938 10C53.0938 9.17157 52.4222 8.5 51.5938 8.5V11.5ZM59.5312 8.5C58.7028 8.5 58.0312 9.17157 58.0312 10C58.0312 10.8284 58.7028 11.5 59.5312 11.5V8.5ZM67.4688 11.5C68.2972 11.5 68.9688 10.8284 68.9688 10C68.9688 9.17157 68.2972 8.5 67.4688 8.5V11.5ZM75.4062 8.5C74.5778 8.5 73.9062 9.17157 73.9062 10C73.9062 10.8284 74.5778 11.5 75.4062 11.5V8.5ZM83.3438 11.5C84.1722 11.5 84.8438 10.8284 84.8438 10C84.8438 9.17157 84.1722 8.5 83.3438 8.5V11.5ZM91.2812 8.5C90.4528 8.5 89.7812 9.17157 89.7812 10C89.7812 10.8284 90.4528 11.5 91.2812 11.5V8.5ZM99.2188 11.5C100.047 11.5 100.719 10.8284 100.719 10C100.719 9.17157 100.047 8.5 99.2188 8.5V11.5ZM107.156 8.5C106.328 8.5 105.656 9.17157 105.656 10C105.656 10.8284 106.328 11.5 107.156 11.5V8.5ZM115.094 11.5C115.922 11.5 116.594 10.8284 116.594 10C116.594 9.17157 115.922 8.5 115.094 8.5V11.5ZM123.031 8.5C122.203 8.5 121.531 9.17157 121.531 10C121.531 10.8284 122.203 11.5 123.031 11.5V8.5ZM130.969 11.5C131.797 11.5 132.469 10.8284 132.469 10C132.469 9.17157 131.797 8.5 130.969 8.5V11.5ZM138.906 8.5C138.078 8.5 137.406 9.17157 137.406 10C137.406 10.8284 138.078 11.5 138.906 11.5V8.5ZM146.844 11.5C147.672 11.5 148.344 10.8284 148.344 10C148.344 9.17157 147.672 8.5 146.844 8.5V11.5ZM154.781 8.5C153.953 8.5 153.281 9.17157 153.281 10C153.281 10.8284 153.953 11.5 154.781 11.5V8.5ZM162.719 11.5C163.547 11.5 164.219 10.8284 164.219 10C164.219 9.17157 163.547 8.5 162.719 8.5V11.5ZM170.656 8.5C169.828 8.5 169.156 9.17157 169.156 10C169.156 10.8284 169.828 11.5 170.656 11.5V8.5ZM178.594 11.5C179.422 11.5 180.094 10.8284 180.094 10C180.094 9.17157 179.422 8.5 178.594 8.5V11.5ZM186.531 8.5C185.703 8.5 185.031 9.17157 185.031 10C185.031 10.8284 185.703 11.5 186.531 11.5V8.5ZM194.469 11.5C195.297 11.5 195.969 10.8284 195.969 10C195.969 9.17157 195.297 8.5 194.469 8.5V11.5ZM202.406 8.5C201.578 8.5 200.906 9.17157 200.906 10C200.906 10.8284 201.578 11.5 202.406 11.5V8.5ZM210.344 11.5C211.172 11.5 211.844 10.8284 211.844 10C211.844 9.17157 211.172 8.5 210.344 8.5V11.5ZM218.281 8.5C217.453 8.5 216.781 9.17157 216.781 10C216.781 10.8284 217.453 11.5 218.281 11.5V8.5ZM226.219 11.5C227.047 11.5 227.719 10.8284 227.719 10C227.719 9.17157 227.047 8.5 226.219 8.5V11.5ZM234.156 8.5C233.328 8.5 232.656 9.17157 232.656 10C232.656 10.8284 233.328 11.5 234.156 11.5V8.5ZM242.094 11.5C242.922 11.5 243.594 10.8284 243.594 10C243.594 9.17157 242.922 8.5 242.094 8.5V11.5ZM250.031 8.5C249.203 8.5 248.531 9.17157 248.531 10C248.531 10.8284 249.203 11.5 250.031 11.5V8.5ZM257.969 11.5C258.797 11.5 259.469 10.8284 259.469 10C259.469 9.17157 258.797 8.5 257.969 8.5V11.5ZM265.906 8.5C265.078 8.5 264.406 9.17157 264.406 10C264.406 10.8284 265.078 11.5 265.906 11.5V8.5ZM273.844 11.5C274.672 11.5 275.344 10.8284 275.344 10C275.344 9.17157 274.672 8.5 273.844 8.5V11.5ZM281.781 8.5C280.953 8.5 280.281 9.17157 280.281 10C280.281 10.8284 280.953 11.5 281.781 11.5V8.5ZM289.719 11.5C290.547 11.5 291.219 10.8284 291.219 10C291.219 9.17157 290.547 8.5 289.719 8.5V11.5ZM297.656 8.5C296.828 8.5 296.156 9.17157 296.156 10C296.156 10.8284 296.828 11.5 297.656 11.5V8.5ZM305.594 11.5C306.422 11.5 307.094 10.8284 307.094 10C307.094 9.17157 306.422 8.5 305.594 8.5V11.5ZM313.531 8.5C312.703 8.5 312.031 9.17157 312.031 10C312.031 10.8284 312.703 11.5 313.531 11.5V8.5ZM321.469 11.5C322.297 11.5 322.969 10.8284 322.969 10C322.969 9.17157 322.297 8.5 321.469 8.5V11.5ZM329.406 8.5C328.578 8.5 327.906 9.17157 327.906 10C327.906 10.8284 328.578 11.5 329.406 11.5V8.5ZM337.344 11.5C338.172 11.5 338.844 10.8284 338.844 10C338.844 9.17157 338.172 8.5 337.344 8.5V11.5ZM345.281 8.5C344.453 8.5 343.781 9.17157 343.781 10C343.781 10.8284 344.453 11.5 345.281 11.5V8.5ZM353.219 11.5C354.047 11.5 354.719 10.8284 354.719 10C354.719 9.17157 354.047 8.5 353.219 8.5V11.5ZM361.156 8.5C360.328 8.5 359.656 9.17157 359.656 10C359.656 10.8284 360.328 11.5 361.156 11.5V8.5ZM369.094 11.5C369.922 11.5 370.594 10.8284 370.594 10C370.594 9.17157 369.922 8.5 369.094 8.5V11.5ZM377.031 8.5C376.203 8.5 375.531 9.17157 375.531 10C375.531 10.8284 376.203 11.5 377.031 11.5V8.5ZM384.969 11.5C385.797 11.5 386.469 10.8284 386.469 10C386.469 9.17157 385.797 8.5 384.969 8.5V11.5ZM392.906 8.5C392.078 8.5 391.406 9.17157 391.406 10C391.406 10.8284 392.078 11.5 392.906 11.5V8.5ZM400.844 11.5C401.672 11.5 402.344 10.8284 402.344 10C402.344 9.17157 401.672 8.5 400.844 8.5V11.5ZM408.781 8.5C407.953 8.5 407.281 9.17157 407.281 10C407.281 10.8284 407.953 11.5 408.781 11.5V8.5ZM416.719 11.5C417.547 11.5 418.219 10.8284 418.219 10C418.219 9.17157 417.547 8.5 416.719 8.5V11.5ZM424.656 8.5C423.828 8.5 423.156 9.17157 423.156 10C423.156 10.8284 423.828 11.5 424.656 11.5V8.5ZM432.594 11.5C433.422 11.5 434.094 10.8284 434.094 10C434.094 9.17157 433.422 8.5 432.594 8.5V11.5ZM440.531 8.5C439.703 8.5 439.031 9.17157 439.031 10C439.031 10.8284 439.703 11.5 440.531 11.5V8.5ZM448.469 11.5C449.297 11.5 449.969 10.8284 449.969 10C449.969 9.17157 449.297 8.5 448.469 8.5V11.5ZM456.406 8.5C455.578 8.5 454.906 9.17157 454.906 10C454.906 10.8284 455.578 11.5 456.406 11.5V8.5ZM464.344 11.5C465.172 11.5 465.844 10.8284 465.844 10C465.844 9.17157 465.172 8.5 464.344 8.5V11.5ZM472.281 8.5C471.453 8.5 470.781 9.17157 470.781 10C470.781 10.8284 471.453 11.5 472.281 11.5V8.5ZM480.219 11.5C481.047 11.5 481.719 10.8284 481.719 10C481.719 9.17157 481.047 8.5 480.219 8.5V11.5ZM488.156 8.5C487.328 8.5 486.656 9.17157 486.656 10C486.656 10.8284 487.328 11.5 488.156 11.5V8.5ZM496.094 11.5C496.922 11.5 497.594 10.8284 497.594 10C497.594 9.17157 496.922 8.5 496.094 8.5V11.5ZM504.031 8.5C503.203 8.5 502.531 9.17157 502.531 10C502.531 10.8284 503.203 11.5 504.031 11.5V8.5ZM511.969 11.5C512.797 11.5 513.469 10.8284 513.469 10C513.469 9.17157 512.797 8.5 511.969 8.5V11.5ZM519.906 8.5C519.078 8.5 518.406 9.17157 518.406 10C518.406 10.8284 519.078 11.5 519.906 11.5V8.5ZM527.844 11.5C528.672 11.5 529.344 10.8284 529.344 10C529.344 9.17157 528.672 8.5 527.844 8.5V11.5ZM535.781 8.5C534.953 8.5 534.281 9.17157 534.281 10C534.281 10.8284 534.953 11.5 535.781 11.5V8.5ZM543.719 11.5C544.547 11.5 545.219 10.8284 545.219 10C545.219 9.17157 544.547 8.5 543.719 8.5V11.5ZM551.656 8.5C550.828 8.5 550.156 9.17157 550.156 10C550.156 10.8284 550.828 11.5 551.656 11.5V8.5ZM559.594 11.5C560.422 11.5 561.094 10.8284 561.094 10C561.094 9.17157 560.422 8.5 559.594 8.5V11.5ZM567.531 8.5C566.703 8.5 566.031 9.17157 566.031 10C566.031 10.8284 566.703 11.5 567.531 11.5V8.5ZM575.469 11.5C576.297 11.5 576.969 10.8284 576.969 10C576.969 9.17157 576.297 8.5 575.469 8.5V11.5ZM583.406 8.5C582.578 8.5 581.906 9.17157 581.906 10C581.906 10.8284 582.578 11.5 583.406 11.5V8.5ZM591.344 11.5C592.172 11.5 592.844 10.8284 592.844 10C592.844 9.17157 592.172 8.5 591.344 8.5V11.5ZM599.281 8.5C598.453 8.5 597.781 9.17157 597.781 10C597.781 10.8284 598.453 11.5 599.281 11.5V8.5ZM607.219 11.5C608.047 11.5 608.719 10.8284 608.719 10C608.719 9.17157 608.047 8.5 607.219 8.5V11.5ZM615.156 8.5C614.328 8.5 613.656 9.17157 613.656 10C613.656 10.8284 614.328 11.5 615.156 11.5V8.5ZM623.094 11.5C623.922 11.5 624.594 10.8284 624.594 10C624.594 9.17157 623.922 8.5 623.094 8.5V11.5ZM631.031 8.5C630.203 8.5 629.531 9.17157 629.531 10C629.531 10.8284 630.203 11.5 631.031 11.5V8.5ZM638.969 11.5C639.797 11.5 640.469 10.8284 640.469 10C640.469 9.17157 639.797 8.5 638.969 8.5V11.5ZM646.906 8.5C646.078 8.5 645.406 9.17157 645.406 10C645.406 10.8284 646.078 11.5 646.906 11.5V8.5ZM654.844 11.5C655.672 11.5 656.344 10.8284 656.344 10C656.344 9.17157 655.672 8.5 654.844 8.5V11.5ZM662.781 8.5C661.953 8.5 661.281 9.17157 661.281 10C661.281 10.8284 661.953 11.5 662.781 11.5V8.5ZM670.719 11.5C671.547 11.5 672.219 10.8284 672.219 10C672.219 9.17157 671.547 8.5 670.719 8.5V11.5ZM678.656 8.5C677.828 8.5 677.156 9.17157 677.156 10C677.156 10.8284 677.828 11.5 678.656 11.5V8.5ZM686.594 11.5C687.422 11.5 688.094 10.8284 688.094 10C688.094 9.17157 687.422 8.5 686.594 8.5V11.5ZM694.531 8.5C693.703 8.5 693.031 9.17157 693.031 10C693.031 10.8284 693.703 11.5 694.531 11.5V8.5ZM702.469 11.5C703.297 11.5 703.969 10.8284 703.969 10C703.969 9.17157 703.297 8.5 702.469 8.5V11.5ZM710.406 8.5C709.578 8.5 708.906 9.17157 708.906 10C708.906 10.8284 709.578 11.5 710.406 11.5V8.5ZM718.344 11.5C719.172 11.5 719.844 10.8284 719.844 10C719.844 9.17157 719.172 8.5 718.344 8.5V11.5ZM726.281 8.5C725.453 8.5 724.781 9.17157 724.781 10C724.781 10.8284 725.453 11.5 726.281 11.5V8.5ZM734.219 11.5C735.047 11.5 735.719 10.8284 735.719 10C735.719 9.17157 735.047 8.5 734.219 8.5V11.5ZM742.156 8.5C741.328 8.5 740.656 9.17157 740.656 10C740.656 10.8284 741.328 11.5 742.156 11.5V8.5ZM750.094 11.5C750.922 11.5 751.594 10.8284 751.594 10C751.594 9.17157 750.922 8.5 750.094 8.5V11.5ZM758.031 8.5C757.203 8.5 756.531 9.17157 756.531 10C756.531 10.8284 757.203 11.5 758.031 11.5V8.5ZM765.969 11.5C766.797 11.5 767.469 10.8284 767.469 10C767.469 9.17157 766.797 8.5 765.969 8.5V11.5ZM773.906 8.5C773.078 8.5 772.406 9.17157 772.406 10C772.406 10.8284 773.078 11.5 773.906 11.5V8.5ZM781.844 11.5C782.672 11.5 783.344 10.8284 783.344 10C783.344 9.17157 782.672 8.5 781.844 8.5V11.5ZM789.781 8.5C788.953 8.5 788.281 9.17157 788.281 10C788.281 10.8284 788.953 11.5 789.781 11.5V8.5ZM797.719 11.5C798.547 11.5 799.219 10.8284 799.219 10C799.219 9.17157 798.547 8.5 797.719 8.5V11.5ZM805.656 8.5C804.828 8.5 804.156 9.17157 804.156 10C804.156 10.8284 804.828 11.5 805.656 11.5V8.5ZM813.594 11.5C814.422 11.5 815.094 10.8284 815.094 10C815.094 9.17157 814.422 8.5 813.594 8.5V11.5ZM821.531 8.5C820.703 8.5 820.031 9.17157 820.031 10C820.031 10.8284 820.703 11.5 821.531 11.5V8.5ZM829.469 11.5C830.297 11.5 830.969 10.8284 830.969 10C830.969 9.17157 830.297 8.5 829.469 8.5V11.5ZM837.406 8.5C836.578 8.5 835.906 9.17157 835.906 10C835.906 10.8284 836.578 11.5 837.406 11.5V8.5ZM845.344 11.5C846.172 11.5 846.844 10.8284 846.844 10C846.844 9.17157 846.172 8.5 845.344 8.5V11.5ZM853.281 8.5C852.453 8.5 851.781 9.17157 851.781 10C851.781 10.8284 852.453 11.5 853.281 11.5V8.5ZM861.219 11.5C862.047 11.5 862.719 10.8284 862.719 10C862.719 9.17157 862.047 8.5 861.219 8.5V11.5ZM869.156 8.5C868.328 8.5 867.656 9.17157 867.656 10C867.656 10.8284 868.328 11.5 869.156 11.5V8.5ZM877.094 11.5C877.922 11.5 878.594 10.8284 878.594 10C878.594 9.17157 877.922 8.5 877.094 8.5V11.5ZM885.031 8.5C884.203 8.5 883.531 9.17157 883.531 10C883.531 10.8284 884.203 11.5 885.031 11.5V8.5ZM887.5 13.9559C887.5 14.7843 888.172 15.4559 889 15.4559C889.828 15.4559 890.5 14.7843 890.5 13.9559H887.5ZM890.5 21.8676C890.5 21.0392 889.828 20.3676 889 20.3676C888.172 20.3676 887.5 21.0392 887.5 21.8676H890.5ZM887.5 29.7794C887.5 30.6078 888.172 31.2794 889 31.2794C889.828 31.2794 890.5 30.6078 890.5 29.7794H887.5ZM890.5 37.6912C890.5 36.8627 889.828 36.1912 889 36.1912C888.172 36.1912 887.5 36.8627 887.5 37.6912H890.5ZM887.5 45.6029C887.5 46.4314 888.172 47.1029 889 47.1029C889.828 47.1029 890.5 46.4314 890.5 45.6029H887.5ZM890.5 53.5147C890.5 52.6863 889.828 52.0147 889 52.0147C888.172 52.0147 887.5 52.6863 887.5 53.5147H890.5ZM887.5 61.4265C887.5 62.2549 888.172 62.9265 889 62.9265C889.828 62.9265 890.5 62.2549 890.5 61.4265H887.5ZM890.5 69.3382C890.5 68.5098 889.828 67.8382 889 67.8382C888.172 67.8382 887.5 68.5098 887.5 69.3382H890.5ZM887.5 77.25C887.5 78.0784 888.172 78.75 889 78.75C889.828 78.75 890.5 78.0784 890.5 77.25H887.5ZM890.5 85.1618C890.5 84.3333 889.828 83.6618 889 83.6618C888.172 83.6618 887.5 84.3333 887.5 85.1618H890.5ZM887.5 93.0735C887.5 93.902 888.172 94.5735 889 94.5735C889.828 94.5735 890.5 93.902 890.5 93.0735H887.5ZM890.5 100.985C890.5 100.157 889.828 99.4853 889 99.4853C888.172 99.4853 887.5 100.157 887.5 100.985H890.5ZM887.5 108.897C887.5 109.725 888.172 110.397 889 110.397C889.828 110.397 890.5 109.725 890.5 108.897H887.5ZM890.5 116.809C890.5 115.98 889.828 115.309 889 115.309C888.172 115.309 887.5 115.98 887.5 116.809H890.5ZM887.5 124.721C887.5 125.549 888.172 126.221 889 126.221C889.828 126.221 890.5 125.549 890.5 124.721H887.5ZM890.5 132.632C890.5 131.804 889.828 131.132 889 131.132C888.172 131.132 887.5 131.804 887.5 132.632H890.5ZM887.5 140.544C887.5 141.373 888.172 142.044 889 142.044C889.828 142.044 890.5 141.373 890.5 140.544H887.5ZM890.5 148.456C890.5 147.627 889.828 146.956 889 146.956C888.172 146.956 887.5 147.627 887.5 148.456H890.5ZM887.5 156.368C887.5 157.196 888.172 157.868 889 157.868C889.828 157.868 890.5 157.196 890.5 156.368H887.5ZM890.5 164.279C890.5 163.451 889.828 162.779 889 162.779C888.172 162.779 887.5 163.451 887.5 164.279H890.5ZM887.5 172.191C887.5 173.02 888.172 173.691 889 173.691C889.828 173.691 890.5 173.02 890.5 172.191H887.5ZM890.5 180.103C890.5 179.275 889.828 178.603 889 178.603C888.172 178.603 887.5 179.275 887.5 180.103H890.5ZM887.5 188.015C887.5 188.843 888.172 189.515 889 189.515C889.828 189.515 890.5 188.843 890.5 188.015H887.5ZM890.5 195.926C890.5 195.098 889.828 194.426 889 194.426C888.172 194.426 887.5 195.098 887.5 195.926H890.5ZM887.5 203.838C887.5 204.667 888.172 205.338 889 205.338C889.828 205.338 890.5 204.667 890.5 203.838H887.5ZM890.5 211.75C890.5 210.922 889.828 210.25 889 210.25C888.172 210.25 887.5 210.922 887.5 211.75H890.5ZM887.5 219.662C887.5 220.49 888.172 221.162 889 221.162C889.828 221.162 890.5 220.49 890.5 219.662H887.5ZM890.5 227.573C890.5 226.745 889.828 226.073 889 226.073C888.172 226.073 887.5 226.745 887.5 227.573H890.5ZM887.5 235.485C887.5 236.314 888.172 236.985 889 236.985C889.828 236.985 890.5 236.314 890.5 235.485H887.5ZM890.5 243.397C890.5 242.569 889.828 241.897 889 241.897C888.172 241.897 887.5 242.569 887.5 243.397H890.5ZM887.5 251.309C887.5 252.137 888.172 252.809 889 252.809C889.828 252.809 890.5 252.137 890.5 251.309H887.5ZM890.5 259.221C890.5 258.392 889.828 257.721 889 257.721C888.172 257.721 887.5 258.392 887.5 259.221H890.5ZM887.5 267.132C887.5 267.961 888.172 268.632 889 268.632C889.828 268.632 890.5 267.961 890.5 267.132H887.5ZM890.5 275.044C890.5 274.216 889.828 273.544 889 273.544C888.172 273.544 887.5 274.216 887.5 275.044H890.5ZM884.997 277.5C884.168 277.5 883.497 278.172 883.497 279C883.497 279.828 884.168 280.5 884.997 280.5V277.5ZM876.99 280.5C877.819 280.5 878.49 279.828 878.49 279C878.49 278.172 877.819 277.5 876.99 277.5V280.5ZM868.984 277.5C868.155 277.5 867.484 278.172 867.484 279C867.484 279.828 868.155 280.5 868.984 280.5V277.5ZM860.977 280.5C861.806 280.5 862.477 279.828 862.477 279C862.477 278.172 861.806 277.5 860.977 277.5V280.5ZM852.971 277.5C852.142 277.5 851.471 278.172 851.471 279C851.471 279.828 852.142 280.5 852.971 280.5V277.5ZM844.964 280.5C845.793 280.5 846.464 279.828 846.464 279C846.464 278.172 845.793 277.5 844.964 277.5V280.5ZM836.958 277.5C836.129 277.5 835.458 278.172 835.458 279C835.458 279.828 836.129 280.5 836.958 280.5V277.5ZM828.951 280.5C829.78 280.5 830.451 279.828 830.451 279C830.451 278.172 829.78 277.5 828.951 277.5V280.5ZM820.945 277.5C820.116 277.5 819.445 278.172 819.445 279C819.445 279.828 820.116 280.5 820.945 280.5V277.5ZM812.938 280.5C813.766 280.5 814.438 279.828 814.438 279C814.438 278.172 813.766 277.5 812.938 277.5V280.5ZM804.932 277.5C804.103 277.5 803.432 278.172 803.432 279C803.432 279.828 804.103 280.5 804.932 280.5V277.5ZM796.925 280.5C797.753 280.5 798.425 279.828 798.425 279C798.425 278.172 797.753 277.5 796.925 277.5V280.5ZM788.918 277.5C788.09 277.5 787.418 278.172 787.418 279C787.418 279.828 788.09 280.5 788.918 280.5V277.5ZM780.912 280.5C781.74 280.5 782.412 279.828 782.412 279C782.412 278.172 781.74 277.5 780.912 277.5V280.5ZM772.905 277.5C772.077 277.5 771.405 278.172 771.405 279C771.405 279.828 772.077 280.5 772.905 280.5V277.5ZM764.899 280.5C765.727 280.5 766.399 279.828 766.399 279C766.399 278.172 765.727 277.5 764.899 277.5V280.5ZM756.892 277.5C756.064 277.5 755.392 278.172 755.392 279C755.392 279.828 756.064 280.5 756.892 280.5V277.5ZM748.886 280.5C749.714 280.5 750.386 279.828 750.386 279C750.386 278.172 749.714 277.5 748.886 277.5V280.5ZM740.879 277.5C740.051 277.5 739.379 278.172 739.379 279C739.379 279.828 740.051 280.5 740.879 280.5V277.5ZM732.873 280.5C733.701 280.5 734.373 279.828 734.373 279C734.373 278.172 733.701 277.5 732.873 277.5V280.5ZM724.866 277.5C724.038 277.5 723.366 278.172 723.366 279C723.366 279.828 724.038 280.5 724.866 280.5V277.5ZM716.86 280.5C717.688 280.5 718.36 279.828 718.36 279C718.36 278.172 717.688 277.5 716.86 277.5V280.5ZM708.853 277.5C708.025 277.5 707.353 278.172 707.353 279C707.353 279.828 708.025 280.5 708.853 280.5V277.5ZM700.847 280.5C701.675 280.5 702.347 279.828 702.347 279C702.347 278.172 701.675 277.5 700.847 277.5V280.5ZM692.84 277.5C692.012 277.5 691.34 278.172 691.34 279C691.34 279.828 692.012 280.5 692.84 280.5V277.5ZM684.834 280.5C685.662 280.5 686.334 279.828 686.334 279C686.334 278.172 685.662 277.5 684.834 277.5V280.5ZM676.827 277.5C675.999 277.5 675.327 278.172 675.327 279C675.327 279.828 675.999 280.5 676.827 280.5V277.5ZM668.821 280.5C669.649 280.5 670.321 279.828 670.321 279C670.321 278.172 669.649 277.5 668.821 277.5V280.5ZM660.814 277.5C659.986 277.5 659.314 278.172 659.314 279C659.314 279.828 659.986 280.5 660.814 280.5V277.5ZM652.808 280.5C653.636 280.5 654.308 279.828 654.308 279C654.308 278.172 653.636 277.5 652.808 277.5V280.5ZM644.801 277.5C643.973 277.5 643.301 278.172 643.301 279C643.301 279.828 643.973 280.5 644.801 280.5V277.5ZM636.795 280.5C637.623 280.5 638.295 279.828 638.295 279C638.295 278.172 637.623 277.5 636.795 277.5V280.5ZM628.788 277.5C627.96 277.5 627.288 278.172 627.288 279C627.288 279.828 627.96 280.5 628.788 280.5V277.5ZM620.782 280.5C621.61 280.5 622.282 279.828 622.282 279C622.282 278.172 621.61 277.5 620.782 277.5V280.5ZM612.775 277.5C611.947 277.5 611.275 278.172 611.275 279C611.275 279.828 611.947 280.5 612.775 280.5V277.5ZM604.769 280.5C605.597 280.5 606.269 279.828 606.269 279C606.269 278.172 605.597 277.5 604.769 277.5V280.5ZM596.762 277.5C595.934 277.5 595.262 278.172 595.262 279C595.262 279.828 595.934 280.5 596.762 280.5V277.5ZM588.755 280.5C589.584 280.5 590.255 279.828 590.255 279C590.255 278.172 589.584 277.5 588.755 277.5V280.5ZM580.749 277.5C579.921 277.5 579.249 278.172 579.249 279C579.249 279.828 579.921 280.5 580.749 280.5V277.5ZM572.742 280.5C573.571 280.5 574.242 279.828 574.242 279C574.242 278.172 573.571 277.5 572.742 277.5V280.5ZM564.736 277.5C563.907 277.5 563.236 278.172 563.236 279C563.236 279.828 563.907 280.5 564.736 280.5V277.5ZM556.729 280.5C557.558 280.5 558.229 279.828 558.229 279C558.229 278.172 557.558 277.5 556.729 277.5V280.5ZM548.723 277.5C547.894 277.5 547.223 278.172 547.223 279C547.223 279.828 547.894 280.5 548.723 280.5V277.5ZM540.716 280.5C541.545 280.5 542.216 279.828 542.216 279C542.216 278.172 541.545 277.5 540.716 277.5V280.5ZM532.71 277.5C531.881 277.5 531.21 278.172 531.21 279C531.21 279.828 531.881 280.5 532.71 280.5V277.5ZM524.703 280.5C525.532 280.5 526.203 279.828 526.203 279C526.203 278.172 525.532 277.5 524.703 277.5V280.5ZM0 11.5H3.96875V8.5H0V11.5ZM11.9062 11.5H19.8438V8.5H11.9062V11.5ZM27.7812 11.5H35.7188V8.5H27.7812V11.5ZM43.6562 11.5H51.5938V8.5H43.6562V11.5ZM59.5312 11.5H67.4688V8.5H59.5312V11.5ZM75.4062 11.5H83.3438V8.5H75.4062V11.5ZM91.2812 11.5H99.2188V8.5H91.2812V11.5ZM107.156 11.5H115.094V8.5H107.156V11.5ZM123.031 11.5H130.969V8.5H123.031V11.5ZM138.906 11.5H146.844V8.5H138.906V11.5ZM154.781 11.5H162.719V8.5H154.781V11.5ZM170.656 11.5H178.594V8.5H170.656V11.5ZM186.531 11.5H194.469V8.5H186.531V11.5ZM202.406 11.5H210.344V8.5H202.406V11.5ZM218.281 11.5H226.219V8.5H218.281V11.5ZM234.156 11.5H242.094V8.5H234.156V11.5ZM250.031 11.5H257.969V8.5H250.031V11.5ZM265.906 11.5H273.844V8.5H265.906V11.5ZM281.781 11.5H289.719V8.5H281.781V11.5ZM297.656 11.5H305.594V8.5H297.656V11.5ZM313.531 11.5H321.469V8.5H313.531V11.5ZM329.406 11.5H337.344V8.5H329.406V11.5ZM345.281 11.5H353.219V8.5H345.281V11.5ZM361.156 11.5H369.094V8.5H361.156V11.5ZM377.031 11.5H384.969V8.5H377.031V11.5ZM392.906 11.5H400.844V8.5H392.906V11.5ZM408.781 11.5H416.719V8.5H408.781V11.5ZM424.656 11.5H432.594V8.5H424.656V11.5ZM440.531 11.5H448.469V8.5H440.531V11.5ZM456.406 11.5H464.344V8.5H456.406V11.5ZM472.281 11.5H480.219V8.5H472.281V11.5ZM488.156 11.5H496.094V8.5H488.156V11.5ZM504.031 11.5H511.969V8.5H504.031V11.5ZM519.906 11.5H527.844V8.5H519.906V11.5ZM535.781 11.5H543.719V8.5H535.781V11.5ZM551.656 11.5H559.594V8.5H551.656V11.5ZM567.531 11.5H575.469V8.5H567.531V11.5ZM583.406 11.5H591.344V8.5H583.406V11.5ZM599.281 11.5H607.219V8.5H599.281V11.5ZM615.156 11.5H623.094V8.5H615.156V11.5ZM631.031 11.5H638.969V8.5H631.031V11.5ZM646.906 11.5H654.844V8.5H646.906V11.5ZM662.781 11.5H670.719V8.5H662.781V11.5ZM678.656 11.5H686.594V8.5H678.656V11.5ZM694.531 11.5H702.469V8.5H694.531V11.5ZM710.406 11.5H718.344V8.5H710.406V11.5ZM726.281 11.5H734.219V8.5H726.281V11.5ZM742.156 11.5H750.094V8.5H742.156V11.5ZM758.031 11.5H765.969V8.5H758.031V11.5ZM773.906 11.5H781.844V8.5H773.906V11.5ZM789.781 11.5H797.719V8.5H789.781V11.5ZM805.656 11.5H813.594V8.5H805.656V11.5ZM821.531 11.5H829.469V8.5H821.531V11.5ZM837.406 11.5H845.344V8.5H837.406V11.5ZM853.281 11.5H861.219V8.5H853.281V11.5ZM869.156 11.5H877.094V8.5H869.156V11.5ZM885.031 11.5H889V8.5H885.031V11.5ZM887.5 10V13.9559H890.5V10H887.5ZM887.5 21.8676V29.7794H890.5V21.8676H887.5ZM887.5 37.6912V45.6029H890.5V37.6912H887.5ZM887.5 53.5147V61.4265H890.5V53.5147H887.5ZM887.5 69.3382V77.25H890.5V69.3382H887.5ZM887.5 85.1618V93.0735H890.5V85.1618H887.5ZM887.5 100.985V108.897H890.5V100.985H887.5ZM887.5 116.809V124.721H890.5V116.809H887.5ZM887.5 132.632V140.544H890.5V132.632H887.5ZM887.5 148.456V156.368H890.5V148.456H887.5ZM887.5 164.279V172.191H890.5V164.279H887.5ZM887.5 180.103V188.015H890.5V180.103H887.5ZM887.5 195.926V203.838H890.5V195.926H887.5ZM887.5 211.75V219.662H890.5V211.75H887.5ZM887.5 227.573V235.485H890.5V227.573H887.5ZM887.5 243.397V251.309H890.5V243.397H887.5ZM887.5 259.221V267.132H890.5V259.221H887.5ZM887.5 275.044V279H890.5V275.044H887.5ZM889 277.5H884.997V280.5H889V277.5ZM876.99 277.5H868.984V280.5H876.99V277.5ZM860.977 277.5H852.971V280.5H860.977V277.5ZM844.964 277.5H836.958V280.5H844.964V277.5ZM828.951 277.5H820.945V280.5H828.951V277.5ZM812.938 277.5H804.932V280.5H812.938V277.5ZM796.925 277.5H788.918V280.5H796.925V277.5ZM780.912 277.5H772.905V280.5H780.912V277.5ZM764.899 277.5H756.892V280.5H764.899V277.5ZM748.886 277.5H740.879V280.5H748.886V277.5ZM732.873 277.5H724.866V280.5H732.873V277.5ZM716.86 277.5H708.853V280.5H716.86V277.5ZM700.847 277.5H692.84V280.5H700.847V277.5ZM684.834 277.5H676.827V280.5H684.834V277.5ZM668.821 277.5H660.814V280.5H668.821V277.5ZM652.808 277.5H644.801V280.5H652.808V277.5ZM636.795 277.5H628.788V280.5H636.795V277.5ZM620.782 277.5H612.775V280.5H620.782V277.5ZM604.769 277.5H596.762V280.5H604.769V277.5ZM588.755 277.5H580.749V280.5H588.755V277.5ZM572.742 277.5H564.736V280.5H572.742V277.5ZM556.729 277.5H548.723V280.5H556.729V277.5ZM540.716 277.5H532.71V280.5H540.716V277.5ZM524.703 277.5H520.7V280.5H524.703V277.5Z"
        fill="white"/>
    <circle cx="286" cy="10" r="6" fill="white"/>
    <circle cx="440" cy="10" r="6" fill="white"/>
    <circle cx="363" cy="10" r="9" fill="white"/>
    <circle cx="725" cy="10" r="9" fill="white"/>
    <defs>
        <filter id="filter0_f_470_130" x="208" y="0.5" width="691.5" height="289" filterUnits="userSpaceOnUse"
                color-interpolation-filters="sRGB">
            <feFlood flood-opacity="0" result="BackgroundImageFix"/>
            <feBlend mode="normal" in="SourceGraphic" in2="BackgroundImageFix" result="shape"/>
            <feGaussianBlur stdDeviation="3.5" result="effect1_foregroundBlur_470_130"/>
        </filter>
    </defs>
</svg>
