<svg width="109" height="48" viewBox="0 0 109 48" fill="none" xmlns="http://www.w3.org/2000/svg">
    <g id="Group 183">
        <path id="Rectangle 154"
              d="M0.925781 4.32945C0.925781 2.10664 2.72773 0.304688 4.95054 0.304688H104.228C106.451 0.304688 108.253 2.10664 108.253 4.32945V43.4591C108.253 45.6819 106.451 47.4839 104.228 47.4839H4.95055C2.72773 47.4839 0.925781 45.6819 0.925781 43.4591V4.32945Z"
              fill="url(#paint0_linear_1_4155)"/>
        <g id="Your balance">
            <path
                d="M9.80876 6.95122H9.00295L7.26542 9.79674L5.53628 6.95122H4.73047L6.8793 10.485V12.8269H7.64314V10.485L9.80876 6.95122Z"
                fill="white"/>
            <path
                d="M12.1099 12.9277C13.4781 12.9277 14.5106 11.9204 14.5106 10.5606C14.5106 9.20917 13.4781 8.20191 12.1099 8.20191C10.7333 8.20191 9.70089 9.20078 9.70089 10.5606C9.70089 11.9204 10.7333 12.9277 12.1099 12.9277ZM12.1099 12.2394C11.1362 12.2394 10.4312 11.5343 10.4312 10.5606C10.4312 9.59529 11.1362 8.89021 12.1099 8.89021C13.0752 8.89021 13.7803 9.59529 13.7803 10.569C13.7803 11.5343 13.0752 12.2394 12.1099 12.2394Z"
                fill="white"/>
            <path
                d="M17.5255 12.9277C18.7594 12.9277 19.54 12.1386 19.54 10.9215V8.29424H18.8265V10.804C18.8265 11.6854 18.3397 12.2394 17.5255 12.2394C16.7281 12.2394 16.2328 11.6938 16.2328 10.804V8.29424H15.5193V10.9215C15.5193 12.1386 16.3084 12.9277 17.5255 12.9277Z"
                fill="white"/>
            <path
                d="M22.9717 8.27745C22.317 8.27745 21.8469 8.52088 21.5196 8.99093L21.4105 8.29424H20.8984V12.8269H21.6119V10.3675C21.6119 9.48617 22.082 8.94896 22.913 8.94896H23.3746V8.27745H22.9717Z"
                fill="white"/>
            <path
                d="M28.4877 8.20191C27.8162 8.20191 27.2286 8.45372 26.8089 8.87342V6.68262H26.0954V12.8269H26.6494L26.7501 12.189C27.1698 12.6507 27.7826 12.9277 28.4877 12.9277C29.8559 12.9277 30.8296 11.912 30.8296 10.5606C30.8296 9.20917 29.8559 8.20191 28.4877 8.20191ZM28.4373 12.2394C27.472 12.2394 26.7669 11.5091 26.7669 10.5606C26.7669 9.61208 27.472 8.89021 28.4373 8.89021C29.3942 8.89021 30.0993 9.60368 30.0993 10.5606C30.0993 11.5259 29.3942 12.2394 28.4373 12.2394Z"
                fill="white"/>
            <path
                d="M35.7768 8.29424L35.6844 8.99093C35.2647 8.49569 34.6352 8.20191 33.8965 8.20191C32.5535 8.20191 31.5463 9.20917 31.5463 10.569C31.5463 11.912 32.5535 12.9277 33.8965 12.9277C34.6352 12.9277 35.2564 12.6339 35.676 12.147L35.7516 12.8269H36.3392V8.29424H35.7768ZM33.9469 12.2394C32.99 12.2394 32.2765 11.5175 32.2765 10.5606C32.2765 9.61208 32.99 8.89021 33.9469 8.89021C34.9122 8.89021 35.6089 9.60368 35.6089 10.5606C35.6089 11.5259 34.9122 12.2394 33.9469 12.2394Z"
                fill="white"/>
            <path d="M37.7763 12.8269H38.4898V6.68262H37.7763V12.8269Z" fill="white"/>
            <path
                d="M43.7936 8.29424L43.7012 8.99093C43.2815 8.49569 42.652 8.20191 41.9133 8.20191C40.5703 8.20191 39.5631 9.20917 39.5631 10.569C39.5631 11.912 40.5703 12.9277 41.9133 12.9277C42.652 12.9277 43.2732 12.6339 43.6928 12.147L43.7684 12.8269H44.356V8.29424H43.7936ZM41.9637 12.2394C41.0068 12.2394 40.2933 11.5175 40.2933 10.5606C40.2933 9.61208 41.0068 8.89021 41.9637 8.89021C42.929 8.89021 43.6257 9.60368 43.6257 10.5606C43.6257 11.5259 42.929 12.2394 41.9637 12.2394Z"
                fill="white"/>
            <path
                d="M48.0595 8.20191C47.3628 8.20191 46.7836 8.50409 46.4395 9.00772L46.3052 8.29424H45.7932V12.8269H46.5066V10.3591C46.5066 9.51135 47.1026 8.84824 47.8832 8.84824C48.6639 8.84824 49.1003 9.36866 49.1003 10.2836V12.8269H49.8138V10.1157C49.8138 9.00772 49.1423 8.20191 48.0595 8.20191Z"
                fill="white"/>
            <path
                d="M53.1764 12.9277C54.2508 12.9277 55.1154 12.2813 55.3924 11.2825H54.6705C54.3935 11.8868 53.8395 12.2394 53.1764 12.2394C52.2531 12.2394 51.548 11.5091 51.548 10.5606C51.548 9.62047 52.2447 8.89021 53.1764 8.89021C53.8479 8.89021 54.4103 9.24275 54.6705 9.83032H55.384C55.107 8.83984 54.2592 8.20191 53.1764 8.20191C51.8334 8.20191 50.8177 9.20917 50.8177 10.5606C50.8177 11.912 51.8334 12.9277 53.1764 12.9277Z"
                fill="white"/>
            <path
                d="M60.6228 10.5858C60.6228 9.25954 59.7162 8.20191 58.3396 8.20191C57.0218 8.20191 56.0313 9.21757 56.0313 10.5606C56.0313 11.912 57.0218 12.9277 58.3396 12.9277C59.3217 12.9277 60.1191 12.3821 60.5052 11.4503H59.7498C59.4728 11.9372 58.9692 12.231 58.3396 12.231C57.4835 12.231 56.8539 11.677 56.7448 10.8376H60.606C60.6144 10.7536 60.6228 10.6697 60.6228 10.5858ZM58.3396 8.87342C59.1454 8.87342 59.7582 9.37705 59.9093 10.1829H56.7616C56.9043 9.39384 57.517 8.87342 58.3396 8.87342Z"
                fill="white"/>
        </g>
        <g id="$ 37,495.89">
            <path
                d="M28.0174 27.6547C28.0174 25.6888 26.349 25.2879 25.0168 24.9516C24.0986 24.7188 23.3484 24.5507 23.3484 23.9299C23.3484 23.3996 23.9692 23.1539 24.5771 23.1539C25.2884 23.1539 25.8963 23.5031 25.8963 24.2273H27.7587C27.7587 22.7271 26.9051 21.7312 25.379 21.4984V20.6577H23.8787V21.4984C22.3914 21.7053 21.4731 22.5977 21.4731 24.0075C21.4731 25.8957 23.0639 26.2837 24.3831 26.5942C25.3272 26.827 26.1032 27.008 26.1032 27.6676C26.1032 28.2884 25.4178 28.6376 24.7064 28.6376C23.9434 28.6376 23.245 28.2496 23.245 27.4478H21.3438C21.3438 29.0515 22.3784 30.112 23.9822 30.3448V31.2502H25.4695V30.3448C26.9439 30.125 28.0174 29.2196 28.0174 27.6547Z"
                fill="white"/>
            <path
                d="M36.0744 24.8481L37.8463 22.0157V21.6665H32.3625V23.322H35.3113L33.7464 25.9087V26.2579H35.0009C35.7899 26.2579 36.3072 26.7235 36.3072 27.4478C36.3072 28.185 35.8157 28.7023 35.1303 28.7023C34.4707 28.7023 34.0309 28.2496 34.0051 27.5642H32.1556C32.2073 29.2584 33.4231 30.4224 35.1303 30.4224C36.8763 30.4224 38.1696 29.1938 38.1696 27.5124C38.1696 26.1673 37.3419 25.1456 36.0744 24.8481Z"
                fill="white"/>
            <path d="M39.1109 21.6665V23.322H42.8228L40.068 30.2672H41.9821L45.2672 21.9252V21.6665H39.1109Z"
                  fill="white"/>
            <path
                d="M45.4 32.3237C46.5511 32.1943 47.34 31.4183 47.34 30.112V28.2496H45.3095V30.2672H46.3829C46.3829 30.8104 46.1113 31.3019 45.4 31.3924V32.3237Z"
                fill="white"/>
            <path
                d="M54.9364 27.008H54.1992V24.9645H52.8024L52.5049 27.008H50.7071L52.9834 21.6665H51.1598L48.3274 28.2884V28.6247H52.4532V30.2672H54.1992V28.6247H54.9364V27.008Z"
                fill="white"/>
            <path
                d="M58.877 21.4984C56.9758 21.4984 55.6307 22.7788 55.6307 24.5895C55.6307 26.2191 56.8077 27.3572 58.4632 27.3572C58.7348 27.3572 58.9934 27.3184 59.265 27.2408C58.7348 28.1591 58.2045 29.0515 57.4931 30.2672H59.5237L61.2438 27.3184C61.9293 26.1544 62.1362 25.3525 62.1362 24.5895C62.1362 22.7659 60.8041 21.4984 58.877 21.4984ZM58.89 26.0121C58.0234 26.0121 57.4155 25.4301 57.4155 24.5895C57.4155 23.7617 58.0234 23.1927 58.89 23.1927C59.7306 23.1927 60.3514 23.7617 60.3514 24.5895C60.3514 25.4301 59.7306 26.0121 58.89 26.0121Z"
                fill="white"/>
            <path
                d="M66.1493 24.68H65.2828L65.4251 23.322H68.6196V21.6665H63.9636L63.4851 26.0121L63.6661 26.2579H66.0717C66.8348 26.2579 67.3521 26.7752 67.3521 27.4995C67.3521 28.1979 66.8607 28.7023 66.2011 28.7023C65.5415 28.7023 65.0629 28.2238 65.05 27.5642H63.1876C63.2005 29.2196 64.468 30.4224 66.2011 30.4224C67.9212 30.4224 69.2146 29.1808 69.2146 27.4995C69.2146 25.8699 67.9471 24.68 66.1493 24.68Z"
                fill="white"/>
            <path d="M70.494 30.2672H72.4986V28.2496H70.494V30.2672Z" fill="white"/>
            <path
                d="M79.1647 25.7147C79.7467 25.2749 80.0442 24.68 80.0442 23.9557C80.0442 22.5072 78.8414 21.4984 77.0824 21.4984C75.3235 21.4984 74.1077 22.5201 74.1077 23.9557C74.1077 24.6671 74.4052 25.2491 74.9872 25.7017C74.2371 26.1803 73.8749 26.8399 73.8749 27.6806C73.8749 29.2972 75.1812 30.4224 77.0695 30.4224C78.9578 30.4224 80.2899 29.2843 80.2899 27.6806C80.2899 26.8399 79.9148 26.1803 79.1647 25.7147ZM77.0824 22.9987C77.7679 22.9987 78.2464 23.4255 78.2464 24.0075C78.2464 24.5895 77.7679 25.0163 77.0824 25.0163C76.3969 25.0163 75.9055 24.5895 75.9055 24.0075C75.9055 23.4255 76.3969 22.9987 77.0824 22.9987ZM77.0824 28.8446C76.2676 28.8446 75.7115 28.3531 75.7115 27.6547C75.7115 26.9563 76.2676 26.4648 77.0824 26.4648C77.9102 26.4648 78.4534 26.9563 78.4534 27.6547C78.4534 28.3531 77.9102 28.8446 77.0824 28.8446Z"
                fill="white"/>
            <path
                d="M84.466 21.4984C82.5648 21.4984 81.2197 22.7788 81.2197 24.5895C81.2197 26.2191 82.3966 27.3572 84.0521 27.3572C84.3237 27.3572 84.5824 27.3184 84.854 27.2408C84.3237 28.1591 83.7934 29.0515 83.0821 30.2672H85.1127L86.8328 27.3184C87.5183 26.1544 87.7252 25.3525 87.7252 24.5895C87.7252 22.7659 86.3931 21.4984 84.466 21.4984ZM84.4789 26.0121C83.6124 26.0121 83.0045 25.4301 83.0045 24.5895C83.0045 23.7617 83.6124 23.1927 84.4789 23.1927C85.3196 23.1927 85.9404 23.7617 85.9404 24.5895C85.9404 25.4301 85.3196 26.0121 84.4789 26.0121Z"
                fill="white"/>
        </g>
        <g id="01/25">
            <path
                d="M89.0737 42.6184C89.7758 42.6184 90.2185 42.0237 90.2185 41.0801C90.2185 40.1276 89.7803 39.5417 89.0737 39.5417C88.3626 39.5417 87.9199 40.1276 87.9199 41.0801C87.9199 42.0237 88.3671 42.6184 89.0737 42.6184ZM89.0737 42.2696C88.5862 42.2696 88.2956 41.8224 88.2956 41.0801C88.2956 40.3377 88.5907 39.8906 89.0737 39.8906C89.5522 39.8906 89.8473 40.3377 89.8473 41.0801C89.8473 41.8224 89.5522 42.2696 89.0737 42.2696Z"
                fill="white"/>
            <path d="M90.5198 39.5909V39.9308H91.0922V42.5648H91.4544V39.5909H90.5198Z" fill="white"/>
            <path d="M92.0003 42.8733H92.4027L93.7041 39.1616H93.3106L92.0003 42.8733Z" fill="white"/>
            <path
                d="M94.7129 42.216C95.7191 41.1159 95.8712 40.8118 95.8712 40.4004C95.8712 39.895 95.5045 39.5417 94.9723 39.5417C94.4312 39.5417 94.0556 39.8816 94.0556 40.4048V40.4764H94.4223V40.4048C94.4223 40.1007 94.6459 39.8906 94.9723 39.8906C95.2898 39.8906 95.5 40.0963 95.5 40.4004C95.5 40.7671 95.3435 41.022 93.9885 42.4485V42.5648H95.9874V42.216H94.7129Z"
                fill="white"/>
            <path
                d="M97.3129 40.6866H96.8657L96.9507 39.9308H98.1313V39.5909H96.6421L96.4945 40.9593L96.5437 41.0175H97.3039C97.6841 41.0175 97.9658 41.2903 97.9658 41.648C97.9658 42.0058 97.702 42.2696 97.3487 42.2696C96.9999 42.2696 96.745 42.0371 96.7226 41.6972H96.3604C96.3783 42.2294 96.7897 42.6184 97.3487 42.6184C97.9077 42.6184 98.337 42.2115 98.337 41.648C98.337 41.1069 97.9077 40.6866 97.3129 40.6866Z"
                fill="white"/>
        </g>
        <g id="**** 1234">
            <path
                d="M11.9081 40.008L11.8097 39.7352L11.3491 39.8917V39.4043H11.0584V39.8917L10.5978 39.7352L10.5039 40.008L10.969 40.1645L10.6515 40.5625L10.8796 40.7504L11.2015 40.33L11.5235 40.7504L11.7516 40.5625L11.4341 40.1645L11.9081 40.008Z"
                fill="white"/>
            <path
                d="M13.6899 40.008L13.5915 39.7352L13.1309 39.8917V39.4043H12.8402V39.8917L12.3796 39.7352L12.2857 40.008L12.7508 40.1645L12.4333 40.5625L12.6613 40.7504L12.9833 40.33L13.3053 40.7504L13.5334 40.5625L13.2159 40.1645L13.6899 40.008Z"
                fill="white"/>
            <path
                d="M15.4717 40.008L15.3733 39.7352L14.9127 39.8917V39.4043H14.622V39.8917L14.1614 39.7352L14.0675 40.008L14.5326 40.1645L14.2151 40.5625L14.4431 40.7504L14.7651 40.33L15.0871 40.7504L15.3152 40.5625L14.9977 40.1645L15.4717 40.008Z"
                fill="white"/>
            <path
                d="M17.2535 40.008L17.1551 39.7352L16.6945 39.8917V39.4043H16.4038V39.8917L15.9432 39.7352L15.8493 40.008L16.3144 40.1645L15.9969 40.5625L16.2249 40.7504L16.5469 40.33L16.8689 40.7504L17.097 40.5625L16.7795 40.1645L17.2535 40.008Z"
                fill="white"/>
            <path d="M18.7255 39.5921V39.932H19.2979V42.566H19.6601V39.5921H18.7255Z" fill="white"/>
            <path
                d="M20.9796 42.2172C21.9858 41.1171 22.1378 40.813 22.1378 40.4015C22.1378 39.8962 21.7711 39.5429 21.2389 39.5429C20.6978 39.5429 20.3222 39.8828 20.3222 40.406V40.4776H20.6889V40.406C20.6889 40.1019 20.9125 39.8917 21.2389 39.8917C21.5565 39.8917 21.7666 40.0975 21.7666 40.4015C21.7666 40.7682 21.6101 41.0231 20.2551 42.4497V42.566H22.2541V42.2172H20.9796Z"
                fill="white"/>
            <path
                d="M23.7897 40.7191L24.4963 39.6816V39.5921H22.7299V39.932H23.9194L23.2352 40.9382V41.0097H23.5661C23.9552 41.0097 24.2369 41.2736 24.2369 41.6403C24.2369 42.0025 23.9731 42.2708 23.6108 42.2708C23.2665 42.2708 23.0205 42.0428 22.9982 41.6984H22.6359C22.6628 42.2395 23.0608 42.6196 23.6108 42.6196C24.1788 42.6196 24.6126 42.2172 24.6126 41.6492C24.6126 41.1618 24.2772 40.7861 23.7897 40.7191Z"
                fill="white"/>
            <path
                d="M27.1177 41.6134H26.8046V40.6967H26.5095L26.4469 41.6134H25.4183L26.353 39.5921H25.9684L24.9219 41.8549V41.9399H26.4424V42.566H26.8046V41.9399H27.1177V41.6134Z"
                fill="white"/>
        </g>
    </g>
    <defs>
        <linearGradient id="paint0_linear_1_4155" x1="0.925781" y1="0.304688" x2="108.253" y2="47.4839"
                        gradientUnits="userSpaceOnUse">
            <stop stop-color="#7D00E2"/>
            <stop offset="1" stop-color="#5066F6"/>
        </linearGradient>
    </defs>
</svg>
