<svg width="594" height="532" viewBox="0 0 594 532" fill="none" xmlns="http://www.w3.org/2000/svg">
    <g filter="url(#filter0_f_470_133)">
        <path d="M48.5 174.5V524.5M12 225L12 524.5" stroke="#5066F6" stroke-width="7" stroke-linecap="round"
              stroke-linejoin="round"/>
    </g>
    <g filter="url(#filter1_f_470_133)">
        <path d="M538 8V524.5M582 83V503" stroke="#5066F6" stroke-width="7" stroke-linecap="round"
              stroke-linejoin="round"/>
    </g>
    <path
        d="M536.5 527C536.5 527.828 537.172 528.5 538 528.5C538.828 528.5 539.5 527.828 539.5 527H536.5ZM539.061 3.93934C538.475 3.35355 537.525 3.35355 536.939 3.93934L527.393 13.4853C526.808 14.0711 526.808 15.0208 527.393 15.6066C527.979 16.1924 528.929 16.1924 529.515 15.6066L538 7.12132L546.485 15.6066C547.071 16.1924 548.021 16.1924 548.607 15.6066C549.192 15.0208 549.192 14.0711 548.607 13.4853L539.061 3.93934ZM536.5 7.96591C536.5 8.79434 537.172 9.46591 538 9.46591C538.828 9.46591 539.5 8.79434 539.5 7.96591H536.5ZM539.5 13.8977C539.5 13.0693 538.828 12.3977 538 12.3977C537.172 12.3977 536.5 13.0693 536.5 13.8977H539.5ZM536.5 19.8295C536.5 20.658 537.172 21.3295 538 21.3295C538.828 21.3295 539.5 20.658 539.5 19.8295H536.5ZM539.5 25.7614C539.5 24.9329 538.828 24.2614 538 24.2614C537.172 24.2614 536.5 24.9329 536.5 25.7614H539.5ZM536.5 31.6932C536.5 32.5216 537.172 33.1932 538 33.1932C538.828 33.1932 539.5 32.5216 539.5 31.6932H536.5ZM539.5 37.625C539.5 36.7966 538.828 36.125 538 36.125C537.172 36.125 536.5 36.7966 536.5 37.625H539.5ZM536.5 43.5568C536.5 44.3852 537.172 45.0568 538 45.0568C538.828 45.0568 539.5 44.3852 539.5 43.5568H536.5ZM539.5 49.4886C539.5 48.6602 538.828 47.9886 538 47.9886C537.172 47.9886 536.5 48.6602 536.5 49.4886H539.5ZM536.5 55.4204C536.5 56.2489 537.172 56.9204 538 56.9204C538.828 56.9204 539.5 56.2489 539.5 55.4204H536.5ZM539.5 61.3523C539.5 60.5238 538.828 59.8523 538 59.8523C537.172 59.8523 536.5 60.5238 536.5 61.3523H539.5ZM536.5 67.2841C536.5 68.1125 537.172 68.7841 538 68.7841C538.828 68.7841 539.5 68.1125 539.5 67.2841H536.5ZM539.5 73.2159C539.5 72.3875 538.828 71.7159 538 71.7159C537.172 71.7159 536.5 72.3875 536.5 73.2159H539.5ZM536.5 79.1477C536.5 79.9761 537.172 80.6477 538 80.6477C538.828 80.6477 539.5 79.9761 539.5 79.1477H536.5ZM539.5 85.0795C539.5 84.2511 538.828 83.5795 538 83.5795C537.172 83.5795 536.5 84.2511 536.5 85.0795H539.5ZM536.5 91.0113C536.5 91.8398 537.172 92.5113 538 92.5113C538.828 92.5113 539.5 91.8398 539.5 91.0113H536.5ZM539.5 96.9432C539.5 96.1147 538.828 95.4432 538 95.4432C537.172 95.4432 536.5 96.1147 536.5 96.9432H539.5ZM536.5 102.875C536.5 103.703 537.172 104.375 538 104.375C538.828 104.375 539.5 103.703 539.5 102.875H536.5ZM539.5 108.807C539.5 107.978 538.828 107.307 538 107.307C537.172 107.307 536.5 107.978 536.5 108.807H539.5ZM536.5 114.739C536.5 115.567 537.172 116.239 538 116.239C538.828 116.239 539.5 115.567 539.5 114.739H536.5ZM539.5 120.67C539.5 119.842 538.828 119.17 538 119.17C537.172 119.17 536.5 119.842 536.5 120.67H539.5ZM536.5 126.602C536.5 127.431 537.172 128.102 538 128.102C538.828 128.102 539.5 127.431 539.5 126.602H536.5ZM539.5 132.534C539.5 131.706 538.828 131.034 538 131.034C537.172 131.034 536.5 131.706 536.5 132.534H539.5ZM536.5 138.466C536.5 139.294 537.172 139.966 538 139.966C538.828 139.966 539.5 139.294 539.5 138.466H536.5ZM539.5 144.398C539.5 143.569 538.828 142.898 538 142.898C537.172 142.898 536.5 143.569 536.5 144.398H539.5ZM536.5 150.33C536.5 151.158 537.172 151.83 538 151.83C538.828 151.83 539.5 151.158 539.5 150.33H536.5ZM539.5 156.261C539.5 155.433 538.828 154.761 538 154.761C537.172 154.761 536.5 155.433 536.5 156.261H539.5ZM536.5 162.193C536.5 163.022 537.172 163.693 538 163.693C538.828 163.693 539.5 163.022 539.5 162.193H536.5ZM539.5 168.125C539.5 167.297 538.828 166.625 538 166.625C537.172 166.625 536.5 167.297 536.5 168.125H539.5ZM536.5 174.057C536.5 174.885 537.172 175.557 538 175.557C538.828 175.557 539.5 174.885 539.5 174.057H536.5ZM539.5 179.989C539.5 179.16 538.828 178.489 538 178.489C537.172 178.489 536.5 179.16 536.5 179.989H539.5ZM536.5 185.92C536.5 186.749 537.172 187.42 538 187.42C538.828 187.42 539.5 186.749 539.5 185.92H536.5ZM539.5 191.852C539.5 191.024 538.828 190.352 538 190.352C537.172 190.352 536.5 191.024 536.5 191.852H539.5ZM536.5 197.784C536.5 198.613 537.172 199.284 538 199.284C538.828 199.284 539.5 198.613 539.5 197.784H536.5ZM539.5 203.716C539.5 202.888 538.828 202.216 538 202.216C537.172 202.216 536.5 202.888 536.5 203.716H539.5ZM536.5 209.648C536.5 210.476 537.172 211.148 538 211.148C538.828 211.148 539.5 210.476 539.5 209.648H536.5ZM539.5 215.58C539.5 214.751 538.828 214.08 538 214.08C537.172 214.08 536.5 214.751 536.5 215.58H539.5ZM536.5 221.511C536.5 222.34 537.172 223.011 538 223.011C538.828 223.011 539.5 222.34 539.5 221.511H536.5ZM539.5 227.443C539.5 226.615 538.828 225.943 538 225.943C537.172 225.943 536.5 226.615 536.5 227.443H539.5ZM536.5 233.375C536.5 234.203 537.172 234.875 538 234.875C538.828 234.875 539.5 234.203 539.5 233.375H536.5ZM539.5 239.307C539.5 238.478 538.828 237.807 538 237.807C537.172 237.807 536.5 238.478 536.5 239.307H539.5ZM536.5 245.239C536.5 246.067 537.172 246.739 538 246.739C538.828 246.739 539.5 246.067 539.5 245.239H536.5ZM539.5 251.171C539.5 250.342 538.828 249.671 538 249.671C537.172 249.671 536.5 250.342 536.5 251.171H539.5ZM536.5 257.102C536.5 257.931 537.172 258.602 538 258.602C538.828 258.602 539.5 257.931 539.5 257.102H536.5ZM539.5 263.034C539.5 262.206 538.828 261.534 538 261.534C537.172 261.534 536.5 262.206 536.5 263.034H539.5ZM536.5 268.966C536.5 269.794 537.172 270.466 538 270.466C538.828 270.466 539.5 269.794 539.5 268.966H536.5ZM539.5 274.898C539.5 274.069 538.828 273.398 538 273.398C537.172 273.398 536.5 274.069 536.5 274.898H539.5ZM536.5 280.83C536.5 281.658 537.172 282.33 538 282.33C538.828 282.33 539.5 281.658 539.5 280.83H536.5ZM539.5 286.761C539.5 285.933 538.828 285.261 538 285.261C537.172 285.261 536.5 285.933 536.5 286.761H539.5ZM536.5 292.693C536.5 293.522 537.172 294.193 538 294.193C538.828 294.193 539.5 293.522 539.5 292.693H536.5ZM539.5 298.625C539.5 297.797 538.828 297.125 538 297.125C537.172 297.125 536.5 297.797 536.5 298.625H539.5ZM536.5 304.557C536.5 305.385 537.172 306.057 538 306.057C538.828 306.057 539.5 305.385 539.5 304.557H536.5ZM539.5 310.489C539.5 309.66 538.828 308.989 538 308.989C537.172 308.989 536.5 309.66 536.5 310.489H539.5ZM536.5 316.421C536.5 317.249 537.172 317.921 538 317.921C538.828 317.921 539.5 317.249 539.5 316.421H536.5ZM539.5 322.352C539.5 321.524 538.828 320.852 538 320.852C537.172 320.852 536.5 321.524 536.5 322.352H539.5ZM536.5 328.284C536.5 329.113 537.172 329.784 538 329.784C538.828 329.784 539.5 329.113 539.5 328.284H536.5ZM539.5 334.216C539.5 333.388 538.828 332.716 538 332.716C537.172 332.716 536.5 333.388 536.5 334.216H539.5ZM536.5 340.148C536.5 340.976 537.172 341.648 538 341.648C538.828 341.648 539.5 340.976 539.5 340.148H536.5ZM539.5 346.08C539.5 345.251 538.828 344.58 538 344.58C537.172 344.58 536.5 345.251 536.5 346.08H539.5ZM536.5 352.012C536.5 352.84 537.172 353.512 538 353.512C538.828 353.512 539.5 352.84 539.5 352.012H536.5ZM539.5 357.943C539.5 357.115 538.828 356.443 538 356.443C537.172 356.443 536.5 357.115 536.5 357.943H539.5ZM536.5 363.875C536.5 364.704 537.172 365.375 538 365.375C538.828 365.375 539.5 364.704 539.5 363.875H536.5ZM539.5 369.807C539.5 368.979 538.828 368.307 538 368.307C537.172 368.307 536.5 368.979 536.5 369.807H539.5ZM536.5 375.739C536.5 376.567 537.172 377.239 538 377.239C538.828 377.239 539.5 376.567 539.5 375.739H536.5ZM539.5 381.671C539.5 380.842 538.828 380.171 538 380.171C537.172 380.171 536.5 380.842 536.5 381.671H539.5ZM536.5 387.602C536.5 388.431 537.172 389.102 538 389.102C538.828 389.102 539.5 388.431 539.5 387.602H536.5ZM539.5 393.534C539.5 392.706 538.828 392.034 538 392.034C537.172 392.034 536.5 392.706 536.5 393.534H539.5ZM536.5 399.466C536.5 400.295 537.172 400.966 538 400.966C538.828 400.966 539.5 400.295 539.5 399.466H536.5ZM539.5 405.398C539.5 404.57 538.828 403.898 538 403.898C537.172 403.898 536.5 404.57 536.5 405.398H539.5ZM536.5 411.33C536.5 412.158 537.172 412.83 538 412.83C538.828 412.83 539.5 412.158 539.5 411.33H536.5ZM539.5 417.262C539.5 416.433 538.828 415.762 538 415.762C537.172 415.762 536.5 416.433 536.5 417.262H539.5ZM536.5 423.193C536.5 424.022 537.172 424.693 538 424.693C538.828 424.693 539.5 424.022 539.5 423.193H536.5ZM539.5 429.125C539.5 428.297 538.828 427.625 538 427.625C537.172 427.625 536.5 428.297 536.5 429.125H539.5ZM536.5 435.057C536.5 435.885 537.172 436.557 538 436.557C538.828 436.557 539.5 435.885 539.5 435.057H536.5ZM539.5 440.989C539.5 440.16 538.828 439.489 538 439.489C537.172 439.489 536.5 440.16 536.5 440.989H539.5ZM536.5 446.921C536.5 447.749 537.172 448.421 538 448.421C538.828 448.421 539.5 447.749 539.5 446.921H536.5ZM539.5 452.853C539.5 452.024 538.828 451.353 538 451.353C537.172 451.353 536.5 452.024 536.5 452.853H539.5ZM536.5 458.784C536.5 459.613 537.172 460.284 538 460.284C538.828 460.284 539.5 459.613 539.5 458.784H536.5ZM539.5 464.716C539.5 463.888 538.828 463.216 538 463.216C537.172 463.216 536.5 463.888 536.5 464.716H539.5ZM536.5 470.648C536.5 471.476 537.172 472.148 538 472.148C538.828 472.148 539.5 471.476 539.5 470.648H536.5ZM539.5 476.58C539.5 475.751 538.828 475.08 538 475.08C537.172 475.08 536.5 475.751 536.5 476.58H539.5ZM536.5 482.512C536.5 483.34 537.172 484.012 538 484.012C538.828 484.012 539.5 483.34 539.5 482.512H536.5ZM539.5 488.443C539.5 487.615 538.828 486.943 538 486.943C537.172 486.943 536.5 487.615 536.5 488.443H539.5ZM536.5 494.375C536.5 495.204 537.172 495.875 538 495.875C538.828 495.875 539.5 495.204 539.5 494.375H536.5ZM539.5 500.307C539.5 499.479 538.828 498.807 538 498.807C537.172 498.807 536.5 499.479 536.5 500.307H539.5ZM536.5 506.239C536.5 507.067 537.172 507.739 538 507.739C538.828 507.739 539.5 507.067 539.5 506.239H536.5ZM539.5 512.171C539.5 511.342 538.828 510.671 538 510.671C537.172 510.671 536.5 511.342 536.5 512.171H539.5ZM536.5 518.103C536.5 518.931 537.172 519.603 538 519.603C538.828 519.603 539.5 518.931 539.5 518.103H536.5ZM539.5 524.034C539.5 523.206 538.828 522.534 538 522.534C537.172 522.534 536.5 523.206 536.5 524.034H539.5ZM536.5 5V7.96591H539.5V5H536.5ZM536.5 13.8977V19.8295H539.5V13.8977H536.5ZM536.5 25.7614V31.6932H539.5V25.7614H536.5ZM536.5 37.625V43.5568H539.5V37.625H536.5ZM536.5 49.4886V55.4204H539.5V49.4886H536.5ZM536.5 61.3523V67.2841H539.5V61.3523H536.5ZM536.5 73.2159V79.1477H539.5V73.2159H536.5ZM536.5 85.0795V91.0113H539.5V85.0795H536.5ZM536.5 96.9432V102.875H539.5V96.9432H536.5ZM536.5 108.807V114.739H539.5V108.807H536.5ZM536.5 120.67V126.602H539.5V120.67H536.5ZM536.5 132.534V138.466H539.5V132.534H536.5ZM536.5 144.398V150.33H539.5V144.398H536.5ZM536.5 156.261V162.193H539.5V156.261H536.5ZM536.5 168.125V174.057H539.5V168.125H536.5ZM536.5 179.989V185.92H539.5V179.989H536.5ZM536.5 191.852V197.784H539.5V191.852H536.5ZM536.5 203.716V209.648H539.5V203.716H536.5ZM536.5 215.58V221.511H539.5V215.58H536.5ZM536.5 227.443V233.375H539.5V227.443H536.5ZM536.5 239.307V245.239H539.5V239.307H536.5ZM536.5 251.171V257.102H539.5V251.171H536.5ZM536.5 263.034V268.966H539.5V263.034H536.5ZM536.5 274.898V280.83H539.5V274.898H536.5ZM536.5 286.761V292.693H539.5V286.761H536.5ZM536.5 298.625V304.557H539.5V298.625H536.5ZM536.5 310.489V316.421H539.5V310.489H536.5ZM536.5 322.352V328.284H539.5V322.352H536.5ZM536.5 334.216V340.148H539.5V334.216H536.5ZM536.5 346.08V352.012H539.5V346.08H536.5ZM536.5 357.943V363.875H539.5V357.943H536.5ZM536.5 369.807V375.739H539.5V369.807H536.5ZM536.5 381.671V387.602H539.5V381.671H536.5ZM536.5 393.534V399.466H539.5V393.534H536.5ZM536.5 405.398V411.33H539.5V405.398H536.5ZM536.5 417.262V423.193H539.5V417.262H536.5ZM536.5 429.125V435.057H539.5V429.125H536.5ZM536.5 440.989V446.921H539.5V440.989H536.5ZM536.5 452.853V458.784H539.5V452.853H536.5ZM536.5 464.716V470.648H539.5V464.716H536.5ZM536.5 476.58V482.512H539.5V476.58H536.5ZM536.5 488.443V494.375H539.5V488.443H536.5ZM536.5 500.307V506.239H539.5V500.307H536.5ZM536.5 512.171V518.103H539.5V512.171H536.5ZM536.5 524.034V527H539.5V524.034H536.5Z"
        fill="white"/>
    <path
        d="M49.5 525C49.5 525.828 48.8284 526.5 48 526.5C47.1716 526.5 46.5 525.828 46.5 525H49.5ZM46.9393 169.939C47.5251 169.354 48.4749 169.354 49.0607 169.939L58.6066 179.485C59.1924 180.071 59.1924 181.021 58.6066 181.607C58.0208 182.192 57.0711 182.192 56.4853 181.607L48 173.121L39.5147 181.607C38.9289 182.192 37.9792 182.192 37.3934 181.607C36.8076 181.021 36.8076 180.071 37.3934 179.485L46.9393 169.939ZM49.5 173.95C49.5 174.778 48.8284 175.45 48 175.45C47.1716 175.45 46.5 174.778 46.5 173.95H49.5ZM46.5 179.85C46.5 179.022 47.1716 178.35 48 178.35C48.8284 178.35 49.5 179.022 49.5 179.85H46.5ZM49.5 185.75C49.5 186.578 48.8284 187.25 48 187.25C47.1716 187.25 46.5 186.578 46.5 185.75H49.5ZM46.5 191.65C46.5 190.822 47.1716 190.15 48 190.15C48.8284 190.15 49.5 190.822 49.5 191.65H46.5ZM49.5 197.55C49.5 198.378 48.8284 199.05 48 199.05C47.1716 199.05 46.5 198.378 46.5 197.55H49.5ZM46.5 203.45C46.5 202.622 47.1716 201.95 48 201.95C48.8284 201.95 49.5 202.622 49.5 203.45H46.5ZM49.5 209.35C49.5 210.178 48.8284 210.85 48 210.85C47.1716 210.85 46.5 210.178 46.5 209.35H49.5ZM46.5 215.25C46.5 214.422 47.1716 213.75 48 213.75C48.8284 213.75 49.5 214.422 49.5 215.25H46.5ZM49.5 221.15C49.5 221.978 48.8284 222.65 48 222.65C47.1716 222.65 46.5 221.978 46.5 221.15H49.5ZM46.5 227.05C46.5 226.222 47.1716 225.55 48 225.55C48.8284 225.55 49.5 226.222 49.5 227.05H46.5ZM49.5 232.95C49.5 233.778 48.8284 234.45 48 234.45C47.1716 234.45 46.5 233.778 46.5 232.95H49.5ZM46.5 238.85C46.5 238.022 47.1716 237.35 48 237.35C48.8284 237.35 49.5 238.022 49.5 238.85H46.5ZM49.5 244.75C49.5 245.578 48.8284 246.25 48 246.25C47.1716 246.25 46.5 245.578 46.5 244.75H49.5ZM46.5 250.65C46.5 249.822 47.1716 249.15 48 249.15C48.8284 249.15 49.5 249.822 49.5 250.65H46.5ZM49.5 256.55C49.5 257.378 48.8284 258.05 48 258.05C47.1716 258.05 46.5 257.378 46.5 256.55H49.5ZM46.5 262.45C46.5 261.622 47.1716 260.95 48 260.95C48.8284 260.95 49.5 261.622 49.5 262.45H46.5ZM49.5 268.35C49.5 269.178 48.8284 269.85 48 269.85C47.1716 269.85 46.5 269.178 46.5 268.35H49.5ZM46.5 274.25C46.5 273.422 47.1716 272.75 48 272.75C48.8284 272.75 49.5 273.422 49.5 274.25H46.5ZM49.5 280.15C49.5 280.978 48.8284 281.65 48 281.65C47.1716 281.65 46.5 280.978 46.5 280.15H49.5ZM46.5 286.05C46.5 285.222 47.1716 284.55 48 284.55C48.8284 284.55 49.5 285.222 49.5 286.05H46.5ZM49.5 291.95C49.5 292.778 48.8284 293.45 48 293.45C47.1716 293.45 46.5 292.778 46.5 291.95H49.5ZM46.5 297.85C46.5 297.022 47.1716 296.35 48 296.35C48.8284 296.35 49.5 297.022 49.5 297.85H46.5ZM49.5 303.75C49.5 304.578 48.8284 305.25 48 305.25C47.1716 305.25 46.5 304.578 46.5 303.75H49.5ZM46.5 309.65C46.5 308.822 47.1716 308.15 48 308.15C48.8284 308.15 49.5 308.822 49.5 309.65H46.5ZM49.5 315.55C49.5 316.378 48.8284 317.05 48 317.05C47.1716 317.05 46.5 316.378 46.5 315.55H49.5ZM46.5 321.45C46.5 320.622 47.1716 319.95 48 319.95C48.8284 319.95 49.5 320.622 49.5 321.45H46.5ZM49.5 327.35C49.5 328.178 48.8284 328.85 48 328.85C47.1716 328.85 46.5 328.178 46.5 327.35H49.5ZM46.5 333.25C46.5 332.422 47.1716 331.75 48 331.75C48.8284 331.75 49.5 332.422 49.5 333.25H46.5ZM49.5 339.15C49.5 339.978 48.8284 340.65 48 340.65C47.1716 340.65 46.5 339.978 46.5 339.15H49.5ZM46.5 345.05C46.5 344.222 47.1716 343.55 48 343.55C48.8284 343.55 49.5 344.222 49.5 345.05H46.5ZM49.5 350.95C49.5 351.778 48.8284 352.45 48 352.45C47.1716 352.45 46.5 351.778 46.5 350.95H49.5ZM46.5 356.85C46.5 356.022 47.1716 355.35 48 355.35C48.8284 355.35 49.5 356.022 49.5 356.85H46.5ZM49.5 362.75C49.5 363.578 48.8284 364.25 48 364.25C47.1716 364.25 46.5 363.578 46.5 362.75H49.5ZM46.5 368.65C46.5 367.822 47.1716 367.15 48 367.15C48.8284 367.15 49.5 367.822 49.5 368.65H46.5ZM49.5 374.55C49.5 375.378 48.8284 376.05 48 376.05C47.1716 376.05 46.5 375.378 46.5 374.55H49.5ZM46.5 380.45C46.5 379.622 47.1716 378.95 48 378.95C48.8284 378.95 49.5 379.622 49.5 380.45H46.5ZM49.5 386.35C49.5 387.178 48.8284 387.85 48 387.85C47.1716 387.85 46.5 387.178 46.5 386.35H49.5ZM46.5 392.25C46.5 391.421 47.1716 390.75 48 390.75C48.8284 390.75 49.5 391.421 49.5 392.25H46.5ZM49.5 398.15C49.5 398.978 48.8284 399.65 48 399.65C47.1716 399.65 46.5 398.978 46.5 398.15H49.5ZM46.5 404.05C46.5 403.221 47.1716 402.55 48 402.55C48.8284 402.55 49.5 403.221 49.5 404.05H46.5ZM49.5 409.95C49.5 410.778 48.8284 411.45 48 411.45C47.1716 411.45 46.5 410.778 46.5 409.95H49.5ZM46.5 415.85C46.5 415.021 47.1716 414.35 48 414.35C48.8284 414.35 49.5 415.021 49.5 415.85H46.5ZM49.5 421.75C49.5 422.578 48.8284 423.25 48 423.25C47.1716 423.25 46.5 422.578 46.5 421.75H49.5ZM46.5 427.65C46.5 426.821 47.1716 426.15 48 426.15C48.8284 426.15 49.5 426.821 49.5 427.65H46.5ZM49.5 433.55C49.5 434.378 48.8284 435.05 48 435.05C47.1716 435.05 46.5 434.378 46.5 433.55H49.5ZM46.5 439.45C46.5 438.621 47.1716 437.95 48 437.95C48.8284 437.95 49.5 438.621 49.5 439.45H46.5ZM49.5 445.35C49.5 446.178 48.8284 446.85 48 446.85C47.1716 446.85 46.5 446.178 46.5 445.35H49.5ZM46.5 451.25C46.5 450.421 47.1716 449.75 48 449.75C48.8284 449.75 49.5 450.421 49.5 451.25H46.5ZM49.5 457.15C49.5 457.978 48.8284 458.65 48 458.65C47.1716 458.65 46.5 457.978 46.5 457.15H49.5ZM46.5 463.05C46.5 462.221 47.1716 461.55 48 461.55C48.8284 461.55 49.5 462.221 49.5 463.05H46.5ZM49.5 468.95C49.5 469.778 48.8284 470.45 48 470.45C47.1716 470.45 46.5 469.778 46.5 468.95H49.5ZM46.5 474.85C46.5 474.021 47.1716 473.35 48 473.35C48.8284 473.35 49.5 474.021 49.5 474.85H46.5ZM49.5 480.75C49.5 481.578 48.8284 482.25 48 482.25C47.1716 482.25 46.5 481.578 46.5 480.75H49.5ZM46.5 486.65C46.5 485.821 47.1716 485.15 48 485.15C48.8284 485.15 49.5 485.821 49.5 486.65H46.5ZM49.5 492.55C49.5 493.378 48.8284 494.05 48 494.05C47.1716 494.05 46.5 493.378 46.5 492.55H49.5ZM46.5 498.45C46.5 497.621 47.1716 496.95 48 496.95C48.8284 496.95 49.5 497.621 49.5 498.45H46.5ZM49.5 504.35C49.5 505.178 48.8284 505.85 48 505.85C47.1716 505.85 46.5 505.178 46.5 504.35H49.5ZM46.5 510.25C46.5 509.421 47.1716 508.75 48 508.75C48.8284 508.75 49.5 509.421 49.5 510.25H46.5ZM49.5 516.15C49.5 516.978 48.8284 517.65 48 517.65C47.1716 517.65 46.5 516.978 46.5 516.15H49.5ZM46.5 522.05C46.5 521.221 47.1716 520.55 48 520.55C48.8284 520.55 49.5 521.221 49.5 522.05H46.5ZM49.5 171V173.95H46.5V171H49.5ZM49.5 179.85V185.75H46.5V179.85H49.5ZM49.5 191.65V197.55H46.5V191.65H49.5ZM49.5 203.45V209.35H46.5V203.45H49.5ZM49.5 215.25V221.15H46.5V215.25H49.5ZM49.5 227.05V232.95H46.5V227.05H49.5ZM49.5 238.85V244.75H46.5V238.85H49.5ZM49.5 250.65V256.55H46.5V250.65H49.5ZM49.5 262.45V268.35H46.5V262.45H49.5ZM49.5 274.25V280.15H46.5V274.25H49.5ZM49.5 286.05V291.95H46.5V286.05H49.5ZM49.5 297.85V303.75H46.5V297.85H49.5ZM49.5 309.65V315.55H46.5V309.65H49.5ZM49.5 321.45V327.35H46.5V321.45H49.5ZM49.5 333.25V339.15H46.5V333.25H49.5ZM49.5 345.05V350.95H46.5V345.05H49.5ZM49.5 356.85V362.75H46.5V356.85H49.5ZM49.5 368.65V374.55H46.5V368.65H49.5ZM49.5 380.45V386.35H46.5V380.45H49.5ZM49.5 392.25V398.15H46.5V392.25H49.5ZM49.5 404.05V409.95H46.5V404.05H49.5ZM49.5 415.85V421.75H46.5V415.85H49.5ZM49.5 427.65V433.55H46.5V427.65H49.5ZM49.5 439.45V445.35H46.5V439.45H49.5ZM49.5 451.25V457.15H46.5V451.25H49.5ZM49.5 463.05V468.95H46.5V463.05H49.5ZM49.5 474.85V480.75H46.5V474.85H49.5ZM49.5 486.65V492.55H46.5V486.65H49.5ZM49.5 498.45V504.35H46.5V498.45H49.5ZM49.5 510.25V516.15H46.5V510.25H49.5ZM49.5 522.05V525H46.5V522.05H49.5Z"
        fill="white"/>
    <path
        d="M580.5 525C580.5 525.828 581.172 526.5 582 526.5C582.828 526.5 583.5 525.828 583.5 525L580.5 525ZM583.061 79.9393C582.475 79.3536 581.525 79.3536 580.939 79.9393L571.393 89.4853C570.808 90.0711 570.808 91.0208 571.393 91.6066C571.979 92.1924 572.929 92.1924 573.515 91.6066L582 83.1213L590.485 91.6066C591.071 92.1924 592.021 92.1924 592.607 91.6066C593.192 91.0208 593.192 90.0711 592.607 89.4853L583.061 79.9393ZM580.5 84C580.5 84.8284 581.172 85.5 582 85.5C582.828 85.5 583.5 84.8284 583.5 84L580.5 84ZM583.5 90C583.5 89.1716 582.828 88.5 582 88.5C581.172 88.5 580.5 89.1716 580.5 90L583.5 90ZM580.5 96C580.5 96.8284 581.172 97.5 582 97.5C582.828 97.5 583.5 96.8284 583.5 96L580.5 96ZM583.5 102C583.5 101.172 582.828 100.5 582 100.5C581.172 100.5 580.5 101.172 580.5 102L583.5 102ZM580.5 108C580.5 108.828 581.172 109.5 582 109.5C582.828 109.5 583.5 108.828 583.5 108L580.5 108ZM583.5 114C583.5 113.172 582.828 112.5 582 112.5C581.172 112.5 580.5 113.172 580.5 114L583.5 114ZM580.5 120C580.5 120.828 581.172 121.5 582 121.5C582.828 121.5 583.5 120.828 583.5 120L580.5 120ZM583.5 126C583.5 125.172 582.828 124.5 582 124.5C581.172 124.5 580.5 125.172 580.5 126L583.5 126ZM580.5 132C580.5 132.828 581.172 133.5 582 133.5C582.828 133.5 583.5 132.828 583.5 132L580.5 132ZM583.5 138C583.5 137.172 582.828 136.5 582 136.5C581.172 136.5 580.5 137.172 580.5 138L583.5 138ZM580.5 144C580.5 144.828 581.172 145.5 582 145.5C582.828 145.5 583.5 144.828 583.5 144L580.5 144ZM583.5 150C583.5 149.172 582.828 148.5 582 148.5C581.172 148.5 580.5 149.172 580.5 150L583.5 150ZM580.5 156C580.5 156.828 581.172 157.5 582 157.5C582.828 157.5 583.5 156.828 583.5 156L580.5 156ZM583.5 162C583.5 161.172 582.828 160.5 582 160.5C581.172 160.5 580.5 161.172 580.5 162L583.5 162ZM580.5 168C580.5 168.828 581.172 169.5 582 169.5C582.828 169.5 583.5 168.828 583.5 168L580.5 168ZM583.5 174C583.5 173.172 582.828 172.5 582 172.5C581.172 172.5 580.5 173.172 580.5 174L583.5 174ZM580.5 180C580.5 180.828 581.172 181.5 582 181.5C582.828 181.5 583.5 180.828 583.5 180L580.5 180ZM583.5 186C583.5 185.172 582.828 184.5 582 184.5C581.172 184.5 580.5 185.172 580.5 186L583.5 186ZM580.5 192C580.5 192.828 581.172 193.5 582 193.5C582.828 193.5 583.5 192.828 583.5 192L580.5 192ZM583.5 198C583.5 197.172 582.828 196.5 582 196.5C581.172 196.5 580.5 197.172 580.5 198L583.5 198ZM580.5 204C580.5 204.828 581.172 205.5 582 205.5C582.828 205.5 583.5 204.828 583.5 204L580.5 204ZM583.5 210C583.5 209.172 582.828 208.5 582 208.5C581.172 208.5 580.5 209.172 580.5 210L583.5 210ZM580.5 216C580.5 216.828 581.172 217.5 582 217.5C582.828 217.5 583.5 216.828 583.5 216L580.5 216ZM583.5 222C583.5 221.172 582.828 220.5 582 220.5C581.172 220.5 580.5 221.172 580.5 222L583.5 222ZM580.5 228C580.5 228.828 581.172 229.5 582 229.5C582.828 229.5 583.5 228.828 583.5 228L580.5 228ZM583.5 234C583.5 233.172 582.828 232.5 582 232.5C581.172 232.5 580.5 233.172 580.5 234L583.5 234ZM580.5 240C580.5 240.828 581.172 241.5 582 241.5C582.828 241.5 583.5 240.828 583.5 240L580.5 240ZM583.5 246C583.5 245.172 582.828 244.5 582 244.5C581.172 244.5 580.5 245.172 580.5 246L583.5 246ZM580.5 252C580.5 252.828 581.172 253.5 582 253.5C582.828 253.5 583.5 252.828 583.5 252L580.5 252ZM583.5 258C583.5 257.172 582.828 256.5 582 256.5C581.172 256.5 580.5 257.172 580.5 258L583.5 258ZM580.5 264C580.5 264.828 581.172 265.5 582 265.5C582.828 265.5 583.5 264.828 583.5 264L580.5 264ZM583.5 270C583.5 269.172 582.828 268.5 582 268.5C581.172 268.5 580.5 269.172 580.5 270L583.5 270ZM580.5 276C580.5 276.828 581.172 277.5 582 277.5C582.828 277.5 583.5 276.828 583.5 276L580.5 276ZM583.5 282C583.5 281.172 582.828 280.5 582 280.5C581.172 280.5 580.5 281.172 580.5 282L583.5 282ZM580.5 288C580.5 288.828 581.172 289.5 582 289.5C582.828 289.5 583.5 288.828 583.5 288L580.5 288ZM583.5 294C583.5 293.172 582.828 292.5 582 292.5C581.172 292.5 580.5 293.172 580.5 294L583.5 294ZM580.5 300C580.5 300.828 581.172 301.5 582 301.5C582.828 301.5 583.5 300.828 583.5 300L580.5 300ZM583.5 306C583.5 305.172 582.828 304.5 582 304.5C581.172 304.5 580.5 305.172 580.5 306L583.5 306ZM580.5 312C580.5 312.828 581.172 313.5 582 313.5C582.828 313.5 583.5 312.828 583.5 312L580.5 312ZM583.5 318C583.5 317.172 582.828 316.5 582 316.5C581.172 316.5 580.5 317.172 580.5 318L583.5 318ZM580.5 324C580.5 324.828 581.172 325.5 582 325.5C582.828 325.5 583.5 324.828 583.5 324L580.5 324ZM583.5 330C583.5 329.172 582.828 328.5 582 328.5C581.172 328.5 580.5 329.172 580.5 330L583.5 330ZM580.5 336C580.5 336.828 581.172 337.5 582 337.5C582.828 337.5 583.5 336.828 583.5 336L580.5 336ZM583.5 342C583.5 341.172 582.828 340.5 582 340.5C581.172 340.5 580.5 341.172 580.5 342L583.5 342ZM580.5 348C580.5 348.828 581.172 349.5 582 349.5C582.828 349.5 583.5 348.828 583.5 348L580.5 348ZM583.5 354C583.5 353.172 582.828 352.5 582 352.5C581.172 352.5 580.5 353.172 580.5 354L583.5 354ZM580.5 360C580.5 360.828 581.172 361.5 582 361.5C582.828 361.5 583.5 360.828 583.5 360L580.5 360ZM583.5 366C583.5 365.172 582.828 364.5 582 364.5C581.172 364.5 580.5 365.172 580.5 366L583.5 366ZM580.5 372C580.5 372.828 581.172 373.5 582 373.5C582.828 373.5 583.5 372.828 583.5 372L580.5 372ZM583.5 378C583.5 377.172 582.828 376.5 582 376.5C581.172 376.5 580.5 377.172 580.5 378L583.5 378ZM580.5 384C580.5 384.828 581.172 385.5 582 385.5C582.828 385.5 583.5 384.828 583.5 384L580.5 384ZM583.5 390C583.5 389.172 582.828 388.5 582 388.5C581.172 388.5 580.5 389.172 580.5 390L583.5 390ZM580.5 396C580.5 396.828 581.172 397.5 582 397.5C582.828 397.5 583.5 396.828 583.5 396L580.5 396ZM583.5 402C583.5 401.172 582.828 400.5 582 400.5C581.172 400.5 580.5 401.172 580.5 402L583.5 402ZM580.5 408C580.5 408.828 581.172 409.5 582 409.5C582.828 409.5 583.5 408.828 583.5 408L580.5 408ZM583.5 414C583.5 413.172 582.828 412.5 582 412.5C581.172 412.5 580.5 413.172 580.5 414L583.5 414ZM580.5 420C580.5 420.828 581.172 421.5 582 421.5C582.828 421.5 583.5 420.828 583.5 420L580.5 420ZM583.5 426C583.5 425.172 582.828 424.5 582 424.5C581.172 424.5 580.5 425.172 580.5 426L583.5 426ZM580.5 432C580.5 432.828 581.172 433.5 582 433.5C582.828 433.5 583.5 432.828 583.5 432L580.5 432ZM583.5 438C583.5 437.172 582.828 436.5 582 436.5C581.172 436.5 580.5 437.172 580.5 438L583.5 438ZM580.5 444C580.5 444.828 581.172 445.5 582 445.5C582.828 445.5 583.5 444.828 583.5 444L580.5 444ZM583.5 450C583.5 449.172 582.828 448.5 582 448.5C581.172 448.5 580.5 449.172 580.5 450L583.5 450ZM580.5 456C580.5 456.828 581.172 457.5 582 457.5C582.828 457.5 583.5 456.828 583.5 456L580.5 456ZM583.5 462C583.5 461.172 582.828 460.5 582 460.5C581.172 460.5 580.5 461.172 580.5 462L583.5 462ZM580.5 468C580.5 468.828 581.172 469.5 582 469.5C582.828 469.5 583.5 468.828 583.5 468L580.5 468ZM583.5 474C583.5 473.172 582.828 472.5 582 472.5C581.172 472.5 580.5 473.172 580.5 474L583.5 474ZM580.5 480C580.5 480.828 581.172 481.5 582 481.5C582.828 481.5 583.5 480.828 583.5 480L580.5 480ZM583.5 486C583.5 485.172 582.828 484.5 582 484.5C581.172 484.5 580.5 485.172 580.5 486L583.5 486ZM580.5 492C580.5 492.828 581.172 493.5 582 493.5C582.828 493.5 583.5 492.828 583.5 492L580.5 492ZM583.5 498C583.5 497.172 582.828 496.5 582 496.5C581.172 496.5 580.5 497.172 580.5 498L583.5 498ZM580.5 504C580.5 504.828 581.172 505.5 582 505.5C582.828 505.5 583.5 504.828 583.5 504L580.5 504ZM583.5 510C583.5 509.172 582.828 508.5 582 508.5C581.172 508.5 580.5 509.172 580.5 510L583.5 510ZM580.5 516C580.5 516.828 581.172 517.5 582 517.5C582.828 517.5 583.5 516.828 583.5 516L580.5 516ZM583.5 522C583.5 521.172 582.828 520.5 582 520.5C581.172 520.5 580.5 521.172 580.5 522L583.5 522ZM580.5 81L580.5 84L583.5 84L583.5 81L580.5 81ZM580.5 90L580.5 96L583.5 96L583.5 90L580.5 90ZM580.5 102L580.5 108L583.5 108L583.5 102L580.5 102ZM580.5 114L580.5 120L583.5 120L583.5 114L580.5 114ZM580.5 126L580.5 132L583.5 132L583.5 126L580.5 126ZM580.5 138L580.5 144L583.5 144L583.5 138L580.5 138ZM580.5 150L580.5 156L583.5 156L583.5 150L580.5 150ZM580.5 162L580.5 168L583.5 168L583.5 162L580.5 162ZM580.5 174L580.5 180L583.5 180L583.5 174L580.5 174ZM580.5 186L580.5 192L583.5 192L583.5 186L580.5 186ZM580.5 198L580.5 204L583.5 204L583.5 198L580.5 198ZM580.5 210L580.5 216L583.5 216L583.5 210L580.5 210ZM580.5 222L580.5 228L583.5 228L583.5 222L580.5 222ZM580.5 234L580.5 240L583.5 240L583.5 234L580.5 234ZM580.5 246L580.5 252L583.5 252L583.5 246L580.5 246ZM580.5 258L580.5 264L583.5 264L583.5 258L580.5 258ZM580.5 270L580.5 276L583.5 276L583.5 270L580.5 270ZM580.5 282L580.5 288L583.5 288L583.5 282L580.5 282ZM580.5 294L580.5 300L583.5 300L583.5 294L580.5 294ZM580.5 306L580.5 312L583.5 312L583.5 306L580.5 306ZM580.5 318L580.5 324L583.5 324L583.5 318L580.5 318ZM580.5 330L580.5 336L583.5 336L583.5 330L580.5 330ZM580.5 342L580.5 348L583.5 348L583.5 342L580.5 342ZM580.5 354L580.5 360L583.5 360L583.5 354L580.5 354ZM580.5 366L580.5 372L583.5 372L583.5 366L580.5 366ZM580.5 378L580.5 384L583.5 384L583.5 378L580.5 378ZM580.5 390L580.5 396L583.5 396L583.5 390L580.5 390ZM580.5 402L580.5 408L583.5 408L583.5 402L580.5 402ZM580.5 414L580.5 420L583.5 420L583.5 414L580.5 414ZM580.5 426L580.5 432L583.5 432L583.5 426L580.5 426ZM580.5 438L580.5 444L583.5 444L583.5 438L580.5 438ZM580.5 450L580.5 456L583.5 456L583.5 450L580.5 450ZM580.5 462L580.5 468L583.5 468L583.5 462L580.5 462ZM580.5 474L580.5 480L583.5 480L583.5 474L580.5 474ZM580.5 486L580.5 492L583.5 492L583.5 486L580.5 486ZM580.5 498L580.5 504L583.5 504L583.5 498L580.5 498ZM580.5 510L580.5 516L583.5 516L583.5 510L580.5 510ZM580.5 522L580.5 525L583.5 525L583.5 522L580.5 522Z"
        fill="white"/>
    <path
        d="M13.5 525C13.5 525.828 12.8284 526.5 12 526.5C11.1716 526.5 10.5 525.828 10.5 525L13.5 525ZM10.9393 221.939C11.5251 221.354 12.4749 221.354 13.0607 221.939L22.6066 231.485C23.1924 232.071 23.1924 233.021 22.6066 233.607C22.0208 234.192 21.0711 234.192 20.4853 233.607L12 225.121L3.51472 233.607C2.92893 234.192 1.97919 234.192 1.3934 233.607C0.807612 233.021 0.807612 232.071 1.3934 231.485L10.9393 221.939ZM13.5 226.02C13.5 226.848 12.8284 227.52 12 227.52C11.1716 227.52 10.5 226.848 10.5 226.02L13.5 226.02ZM10.5 232.06C10.5 231.232 11.1716 230.56 12 230.56C12.8284 230.56 13.5 231.232 13.5 232.06L10.5 232.06ZM13.5 238.1C13.5 238.928 12.8284 239.6 12 239.6C11.1716 239.6 10.5 238.928 10.5 238.1L13.5 238.1ZM10.5 244.14C10.5 243.312 11.1716 242.64 12 242.64C12.8284 242.64 13.5 243.312 13.5 244.14L10.5 244.14ZM13.5 250.18C13.5 251.008 12.8284 251.68 12 251.68C11.1716 251.68 10.5 251.008 10.5 250.18L13.5 250.18ZM10.5 256.22C10.5 255.392 11.1716 254.72 12 254.72C12.8284 254.72 13.5 255.392 13.5 256.22L10.5 256.22ZM13.5 262.26C13.5 263.088 12.8284 263.76 12 263.76C11.1716 263.76 10.5 263.088 10.5 262.26L13.5 262.26ZM10.5 268.3C10.5 267.472 11.1716 266.8 12 266.8C12.8284 266.8 13.5 267.472 13.5 268.3L10.5 268.3ZM13.5 274.34C13.5 275.168 12.8284 275.84 12 275.84C11.1716 275.84 10.5 275.168 10.5 274.34L13.5 274.34ZM10.5 280.38C10.5 279.552 11.1716 278.88 12 278.88C12.8284 278.88 13.5 279.552 13.5 280.38L10.5 280.38ZM13.5 286.42C13.5 287.248 12.8284 287.92 12 287.92C11.1716 287.92 10.5 287.248 10.5 286.42L13.5 286.42ZM10.5 292.46C10.5 291.632 11.1716 290.96 12 290.96C12.8284 290.96 13.5 291.632 13.5 292.46L10.5 292.46ZM13.5 298.5C13.5 299.328 12.8284 300 12 300C11.1716 300 10.5 299.328 10.5 298.5L13.5 298.5ZM10.5 304.54C10.5 303.712 11.1716 303.04 12 303.04C12.8284 303.04 13.5 303.712 13.5 304.54L10.5 304.54ZM13.5 310.58C13.5 311.408 12.8284 312.08 12 312.08C11.1716 312.08 10.5 311.408 10.5 310.58L13.5 310.58ZM10.5 316.62C10.5 315.792 11.1716 315.12 12 315.12C12.8284 315.12 13.5 315.792 13.5 316.62L10.5 316.62ZM13.5 322.66C13.5 323.488 12.8284 324.16 12 324.16C11.1716 324.16 10.5 323.488 10.5 322.66L13.5 322.66ZM10.5 328.7C10.5 327.872 11.1716 327.2 12 327.2C12.8284 327.2 13.5 327.872 13.5 328.7L10.5 328.7ZM13.5 334.74C13.5 335.568 12.8284 336.24 12 336.24C11.1716 336.24 10.5 335.568 10.5 334.74L13.5 334.74ZM10.5 340.78C10.5 339.952 11.1716 339.28 12 339.28C12.8284 339.28 13.5 339.952 13.5 340.78L10.5 340.78ZM13.5 346.82C13.5 347.648 12.8284 348.32 12 348.32C11.1716 348.32 10.5 347.648 10.5 346.82L13.5 346.82ZM10.5 352.86C10.5 352.032 11.1716 351.36 12 351.36C12.8284 351.36 13.5 352.032 13.5 352.86L10.5 352.86ZM13.5 358.9C13.5 359.728 12.8284 360.4 12 360.4C11.1716 360.4 10.5 359.728 10.5 358.9L13.5 358.9ZM10.5 364.94C10.5 364.112 11.1716 363.44 12 363.44C12.8284 363.44 13.5 364.112 13.5 364.94L10.5 364.94ZM13.5 370.98C13.5 371.808 12.8284 372.48 12 372.48C11.1716 372.48 10.5 371.808 10.5 370.98L13.5 370.98ZM10.5 377.02C10.5 376.192 11.1716 375.52 12 375.52C12.8284 375.52 13.5 376.192 13.5 377.02L10.5 377.02ZM13.5 383.06C13.5 383.888 12.8284 384.56 12 384.56C11.1716 384.56 10.5 383.888 10.5 383.06L13.5 383.06ZM10.5 389.1C10.5 388.272 11.1716 387.6 12 387.6C12.8284 387.6 13.5 388.272 13.5 389.1L10.5 389.1ZM13.5 395.14C13.5 395.968 12.8284 396.64 12 396.64C11.1716 396.64 10.5 395.968 10.5 395.14L13.5 395.14ZM10.5 401.18C10.5 400.352 11.1716 399.68 12 399.68C12.8284 399.68 13.5 400.352 13.5 401.18L10.5 401.18ZM13.5 407.22C13.5 408.048 12.8284 408.72 12 408.72C11.1716 408.72 10.5 408.048 10.5 407.22L13.5 407.22ZM10.5 413.26C10.5 412.432 11.1716 411.76 12 411.76C12.8284 411.76 13.5 412.432 13.5 413.26L10.5 413.26ZM13.5 419.3C13.5 420.128 12.8284 420.8 12 420.8C11.1716 420.8 10.5 420.128 10.5 419.3L13.5 419.3ZM10.5 425.34C10.5 424.512 11.1716 423.84 12 423.84C12.8284 423.84 13.5 424.512 13.5 425.34L10.5 425.34ZM13.5 431.38C13.5 432.208 12.8284 432.88 12 432.88C11.1716 432.88 10.5 432.208 10.5 431.38L13.5 431.38ZM10.5 437.42C10.5 436.591 11.1716 435.92 12 435.92C12.8284 435.92 13.5 436.591 13.5 437.42L10.5 437.42ZM13.5 443.46C13.5 444.288 12.8284 444.96 12 444.96C11.1716 444.96 10.5 444.288 10.5 443.46L13.5 443.46ZM10.5 449.5C10.5 448.671 11.1716 448 12 448C12.8284 448 13.5 448.671 13.5 449.5L10.5 449.5ZM13.5 455.54C13.5 456.368 12.8284 457.04 12 457.04C11.1716 457.04 10.5 456.368 10.5 455.54L13.5 455.54ZM10.5 461.58C10.5 460.751 11.1716 460.08 12 460.08C12.8284 460.08 13.5 460.751 13.5 461.58L10.5 461.58ZM13.5 467.62C13.5 468.448 12.8284 469.12 12 469.12C11.1716 469.12 10.5 468.448 10.5 467.62L13.5 467.62ZM10.5 473.66C10.5 472.831 11.1716 472.16 12 472.16C12.8284 472.16 13.5 472.831 13.5 473.66L10.5 473.66ZM13.5 479.7C13.5 480.528 12.8284 481.2 12 481.2C11.1716 481.2 10.5 480.528 10.5 479.7L13.5 479.7ZM10.5 485.74C10.5 484.911 11.1716 484.24 12 484.24C12.8284 484.24 13.5 484.911 13.5 485.74L10.5 485.74ZM13.5 491.78C13.5 492.608 12.8284 493.28 12 493.28C11.1716 493.28 10.5 492.608 10.5 491.78L13.5 491.78ZM10.5 497.82C10.5 496.991 11.1716 496.32 12 496.32C12.8284 496.32 13.5 496.991 13.5 497.82L10.5 497.82ZM13.5 503.86C13.5 504.688 12.8284 505.36 12 505.36C11.1716 505.36 10.5 504.688 10.5 503.86L13.5 503.86ZM10.5 509.9C10.5 509.072 11.1716 508.4 12 508.4C12.8284 508.4 13.5 509.072 13.5 509.9L10.5 509.9ZM13.5 515.94C13.5 516.768 12.8284 517.44 12 517.44C11.1716 517.44 10.5 516.768 10.5 515.94L13.5 515.94ZM10.5 521.98C10.5 521.152 11.1716 520.48 12 520.48C12.8284 520.48 13.5 521.152 13.5 521.98L10.5 521.98ZM13.5 223L13.5 226.02L10.5 226.02L10.5 223L13.5 223ZM13.5 232.06L13.5 238.1L10.5 238.1L10.5 232.06L13.5 232.06ZM13.5 244.14L13.5 250.18L10.5 250.18L10.5 244.14L13.5 244.14ZM13.5 256.22L13.5 262.26L10.5 262.26L10.5 256.22L13.5 256.22ZM13.5 268.3L13.5 274.34L10.5 274.34L10.5 268.3L13.5 268.3ZM13.5 280.38L13.5 286.42L10.5 286.42L10.5 280.38L13.5 280.38ZM13.5 292.46L13.5 298.5L10.5 298.5L10.5 292.46L13.5 292.46ZM13.5 304.54L13.5 310.58L10.5 310.58L10.5 304.54L13.5 304.54ZM13.5 316.62L13.5 322.66L10.5 322.66L10.5 316.62L13.5 316.62ZM13.5 328.7L13.5 334.74L10.5 334.74L10.5 328.7L13.5 328.7ZM13.5 340.78L13.5 346.82L10.5 346.82L10.5 340.78L13.5 340.78ZM13.5 352.86L13.5 358.9L10.5 358.9L10.5 352.86L13.5 352.86ZM13.5 364.94L13.5 370.98L10.5 370.98L10.5 364.94L13.5 364.94ZM13.5 377.02L13.5 383.06L10.5 383.06L10.5 377.02L13.5 377.02ZM13.5 389.1L13.5 395.14L10.5 395.14L10.5 389.1L13.5 389.1ZM13.5 401.18L13.5 407.22L10.5 407.22L10.5 401.18L13.5 401.18ZM13.5 413.26L13.5 419.3L10.5 419.3L10.5 413.26L13.5 413.26ZM13.5 425.34L13.5 431.38L10.5 431.38L10.5 425.34L13.5 425.34ZM13.5 437.42L13.5 443.46L10.5 443.46L10.5 437.42L13.5 437.42ZM13.5 449.5L13.5 455.54L10.5 455.54L10.5 449.5L13.5 449.5ZM13.5 461.58L13.5 467.62L10.5 467.62L10.5 461.58L13.5 461.58ZM13.5 473.66L13.5 479.7L10.5 479.7L10.5 473.66L13.5 473.66ZM13.5 485.74L13.5 491.78L10.5 491.78L10.5 485.74L13.5 485.74ZM13.5 497.82L13.5 503.86L10.5 503.86L10.5 497.82L13.5 497.82ZM13.5 509.9L13.5 515.94L10.5 515.94L10.5 509.9L13.5 509.9ZM13.5 521.98L13.5 525L10.5 525L10.5 521.98L13.5 521.98Z"
        fill="white"/>
    <defs>
        <filter id="filter0_f_470_133" x="4.5" y="167" width="51.5" height="365" filterUnits="userSpaceOnUse"
                color-interpolation-filters="sRGB">
            <feFlood flood-opacity="0" result="BackgroundImageFix"/>
            <feBlend mode="normal" in="SourceGraphic" in2="BackgroundImageFix" result="shape"/>
            <feGaussianBlur stdDeviation="2" result="effect1_foregroundBlur_470_133"/>
        </filter>
        <filter id="filter1_f_470_133" x="530.5" y="0.5" width="59" height="531.5" filterUnits="userSpaceOnUse"
                color-interpolation-filters="sRGB">
            <feFlood flood-opacity="0" result="BackgroundImageFix"/>
            <feBlend mode="normal" in="SourceGraphic" in2="BackgroundImageFix" result="shape"/>
            <feGaussianBlur stdDeviation="2" result="effect1_foregroundBlur_470_133"/>
        </filter>
    </defs>
</svg>
